<svg xmlns="http://www.w3.org/2000/svg" xmlns:xlink="http://www.w3.org/1999/xlink" width="480" zoomAndPan="magnify" viewBox="0 0 360 503.999982" height="672" preserveAspectRatio="xMidYMid meet" version="1.0"><defs><g/><clipPath id="e2cf277440"><rect x="0" width="48" y="0" height="12"/></clipPath><clipPath id="ef5f2280a3"><rect x="0" width="20" y="0" height="20"/></clipPath><clipPath id="03c66d7ff2"><path d="M 0.078125 2 L 5 2 L 5 9 L 0.078125 9 Z M 0.078125 2 " clip-rule="nonzero"/></clipPath><clipPath id="b4aac54669"><rect x="0" width="20" y="0" height="11"/></clipPath><clipPath id="164a01c3e3"><rect x="0" width="48" y="0" height="11"/></clipPath></defs><g transform="matrix(1, 0, 0, 1, 100, 227)"><g clip-path="url(#e2cf277440)"><g fill="#000000" fill-opacity="1"><g transform="translate(1.130633, 9.110189)"><g><path d="M 1.703125 -0.71875 C 1.703125 -0.550781 1.722656 -0.429688 1.765625 -0.359375 C 1.804688 -0.296875 1.878906 -0.242188 1.984375 -0.203125 L 1.984375 0 L 0.421875 0 L 0.421875 -0.203125 C 0.523438 -0.242188 0.597656 -0.296875 0.640625 -0.359375 C 0.679688 -0.429688 0.703125 -0.550781 0.703125 -0.71875 L 0.703125 -5.171875 C 0.703125 -5.347656 0.679688 -5.46875 0.640625 -5.53125 C 0.597656 -5.601562 0.523438 -5.660156 0.421875 -5.703125 L 0.421875 -5.90625 L 4.484375 -5.90625 L 4.859375 -4.953125 L 4.609375 -4.875 C 4.503906 -4.988281 4.382812 -5.066406 4.25 -5.109375 C 4.125 -5.160156 3.90625 -5.1875 3.59375 -5.1875 L 1.703125 -5.1875 L 1.703125 -3.5625 L 3.46875 -3.5625 C 3.800781 -3.5625 4.015625 -3.585938 4.109375 -3.640625 C 4.203125 -3.691406 4.265625 -3.78125 4.296875 -3.90625 L 4.5 -3.90625 L 4.5 -2.5 L 4.296875 -2.5 C 4.265625 -2.625 4.195312 -2.710938 4.09375 -2.765625 C 4 -2.816406 3.789062 -2.84375 3.46875 -2.84375 L 1.703125 -2.84375 Z M 1.703125 -0.71875 "/></g></g></g><g fill="#000000" fill-opacity="1"><g transform="translate(6.443182, 9.110189)"><g><path d="M 0.421875 0 L 0.421875 -0.203125 C 0.523438 -0.242188 0.597656 -0.296875 0.640625 -0.359375 C 0.679688 -0.429688 0.703125 -0.554688 0.703125 -0.734375 L 0.703125 -5.171875 C 0.703125 -5.347656 0.679688 -5.46875 0.640625 -5.53125 C 0.597656 -5.601562 0.523438 -5.660156 0.421875 -5.703125 L 0.421875 -5.90625 L 4.484375 -5.90625 L 4.859375 -4.953125 L 4.609375 -4.875 C 4.503906 -4.988281 4.382812 -5.066406 4.25 -5.109375 C 4.125 -5.160156 3.90625 -5.1875 3.59375 -5.1875 L 1.703125 -5.1875 L 1.703125 -3.5625 L 3.46875 -3.5625 C 3.800781 -3.5625 4.015625 -3.585938 4.109375 -3.640625 C 4.203125 -3.691406 4.265625 -3.78125 4.296875 -3.90625 L 4.5 -3.90625 L 4.5 -2.5 L 4.296875 -2.5 C 4.265625 -2.625 4.195312 -2.710938 4.09375 -2.765625 C 4 -2.816406 3.789062 -2.84375 3.46875 -2.84375 L 1.703125 -2.84375 L 1.703125 -0.71875 L 3.796875 -0.71875 C 4.046875 -0.71875 4.234375 -0.742188 4.359375 -0.796875 C 4.492188 -0.847656 4.601562 -0.929688 4.6875 -1.046875 L 4.90625 -0.953125 L 4.5 0 Z M 0.421875 0 "/></g></g></g><g fill="#000000" fill-opacity="1"><g transform="translate(11.968882, 9.110189)"><g><path d="M 1.65625 -0.671875 L 2.40625 -0.671875 C 2.832031 -0.671875 3.140625 -0.753906 3.328125 -0.921875 C 3.523438 -1.097656 3.625 -1.382812 3.625 -1.78125 C 3.625 -2.15625 3.515625 -2.425781 3.296875 -2.59375 C 3.085938 -2.757812 2.753906 -2.84375 2.296875 -2.84375 L 2.03125 -2.84375 L 2.03125 -3.5 L 2.109375 -3.5 C 2.484375 -3.5 2.765625 -3.578125 2.953125 -3.734375 C 3.140625 -3.898438 3.234375 -4.140625 3.234375 -4.453125 C 3.234375 -4.734375 3.144531 -4.9375 2.96875 -5.0625 C 2.789062 -5.1875 2.5 -5.25 2.09375 -5.25 L 1.65625 -5.25 Z M 2.203125 -5.90625 C 2.578125 -5.90625 2.875 -5.878906 3.09375 -5.828125 C 3.3125 -5.773438 3.5 -5.6875 3.65625 -5.5625 C 3.820312 -5.4375 3.945312 -5.28125 4.03125 -5.09375 C 4.125 -4.914062 4.171875 -4.722656 4.171875 -4.515625 C 4.171875 -4.203125 4.082031 -3.9375 3.90625 -3.71875 C 3.726562 -3.507812 3.476562 -3.363281 3.15625 -3.28125 C 3.601562 -3.1875 3.957031 -2.992188 4.21875 -2.703125 C 4.476562 -2.421875 4.609375 -2.070312 4.609375 -1.65625 C 4.609375 -1.101562 4.425781 -0.6875 4.0625 -0.40625 C 3.707031 -0.132812 3.164062 0 2.4375 0 L 0.421875 0 L 0.421875 -0.203125 C 0.523438 -0.242188 0.597656 -0.296875 0.640625 -0.359375 C 0.679688 -0.421875 0.703125 -0.53125 0.703125 -0.6875 L 0.703125 -5.21875 C 0.703125 -5.375 0.679688 -5.484375 0.640625 -5.546875 C 0.597656 -5.609375 0.523438 -5.660156 0.421875 -5.703125 L 0.421875 -5.90625 Z M 2.203125 -5.90625 "/></g></g></g><g fill="#000000" fill-opacity="1"><g transform="translate(17.321649, 9.110189)"><g><path d="M 0.421875 -5.90625 L 2 -5.90625 C 2.414062 -5.90625 2.734375 -5.890625 2.953125 -5.859375 C 3.171875 -5.835938 3.359375 -5.789062 3.515625 -5.71875 C 3.785156 -5.59375 3.992188 -5.421875 4.140625 -5.203125 C 4.285156 -4.984375 4.359375 -4.726562 4.359375 -4.4375 C 4.359375 -4.0625 4.238281 -3.75 4 -3.5 C 3.757812 -3.257812 3.410156 -3.09375 2.953125 -3 C 3.210938 -2.851562 3.476562 -2.625 3.75 -2.3125 C 4.019531 -2 4.28125 -1.617188 4.53125 -1.171875 C 4.570312 -1.109375 4.625 -1.015625 4.6875 -0.890625 C 4.894531 -0.492188 5.082031 -0.265625 5.25 -0.203125 L 5.25 0 L 3.71875 0 L 3.71875 -0.203125 C 3.75 -0.242188 3.769531 -0.28125 3.78125 -0.3125 C 3.789062 -0.34375 3.796875 -0.367188 3.796875 -0.390625 C 3.796875 -0.472656 3.742188 -0.613281 3.640625 -0.8125 C 3.546875 -1.019531 3.40625 -1.253906 3.21875 -1.515625 C 3.007812 -1.816406 2.796875 -2.078125 2.578125 -2.296875 C 2.367188 -2.515625 2.175781 -2.675781 2 -2.78125 L 2 -3.359375 C 2.457031 -3.390625 2.804688 -3.488281 3.046875 -3.65625 C 3.285156 -3.820312 3.40625 -4.054688 3.40625 -4.359375 C 3.40625 -4.660156 3.3125 -4.878906 3.125 -5.015625 C 2.9375 -5.148438 2.625 -5.21875 2.1875 -5.21875 L 1.703125 -5.21875 L 1.703125 -0.6875 C 1.703125 -0.53125 1.722656 -0.421875 1.765625 -0.359375 C 1.804688 -0.296875 1.878906 -0.242188 1.984375 -0.203125 L 1.984375 0 L 0.421875 0 L 0.421875 -0.203125 C 0.523438 -0.242188 0.597656 -0.296875 0.640625 -0.359375 C 0.679688 -0.421875 0.703125 -0.53125 0.703125 -0.6875 L 0.703125 -5.203125 C 0.703125 -5.367188 0.679688 -5.484375 0.640625 -5.546875 C 0.597656 -5.609375 0.523438 -5.660156 0.421875 -5.703125 Z M 0.421875 -5.90625 "/></g></g></g><g fill="#000000" fill-opacity="1"><g transform="translate(22.690502, 9.110189)"><g><path d="M 0.671875 -5.21875 C 0.671875 -5.375 0.648438 -5.484375 0.609375 -5.546875 C 0.566406 -5.609375 0.488281 -5.660156 0.375 -5.703125 L 0.375 -5.90625 L 1.9375 -5.90625 L 1.9375 -5.703125 C 1.832031 -5.660156 1.757812 -5.601562 1.71875 -5.53125 C 1.675781 -5.46875 1.65625 -5.363281 1.65625 -5.21875 L 1.65625 -2.796875 C 1.65625 -2.078125 1.785156 -1.539062 2.046875 -1.1875 C 2.316406 -0.832031 2.722656 -0.65625 3.265625 -0.65625 C 3.804688 -0.65625 4.195312 -0.804688 4.4375 -1.109375 C 4.6875 -1.421875 4.8125 -1.921875 4.8125 -2.609375 L 4.8125 -5.21875 C 4.8125 -5.375 4.789062 -5.484375 4.75 -5.546875 C 4.707031 -5.609375 4.632812 -5.660156 4.53125 -5.703125 L 4.53125 -5.90625 L 5.921875 -5.90625 L 5.921875 -5.703125 C 5.804688 -5.660156 5.726562 -5.601562 5.6875 -5.53125 C 5.65625 -5.46875 5.640625 -5.363281 5.640625 -5.21875 L 5.640625 -2.625 C 5.640625 -2.164062 5.613281 -1.828125 5.5625 -1.609375 C 5.519531 -1.390625 5.453125 -1.191406 5.359375 -1.015625 C 5.160156 -0.660156 4.867188 -0.382812 4.484375 -0.1875 C 4.109375 0 3.675781 0.09375 3.1875 0.09375 C 2.726562 0.09375 2.3125 0 1.9375 -0.1875 C 1.570312 -0.375 1.28125 -0.632812 1.0625 -0.96875 C 0.925781 -1.1875 0.828125 -1.425781 0.765625 -1.6875 C 0.703125 -1.945312 0.671875 -2.273438 0.671875 -2.671875 Z M 0.671875 -5.21875 "/></g></g></g><g fill="#000000" fill-opacity="1"><g transform="translate(29.322174, 9.110189)"><g><path d="M 1.75 -2.390625 L 3.65625 -2.390625 L 2.71875 -4.609375 Z M 1.4375 -1.671875 L 1.078125 -0.84375 C 1.046875 -0.769531 1.019531 -0.703125 1 -0.640625 C 0.988281 -0.578125 0.984375 -0.523438 0.984375 -0.484375 C 0.984375 -0.421875 1 -0.363281 1.03125 -0.3125 C 1.0625 -0.269531 1.113281 -0.234375 1.1875 -0.203125 L 1.1875 0 L -0.15625 0 L -0.15625 -0.203125 C -0.09375 -0.242188 -0.03125 -0.316406 0.03125 -0.421875 C 0.09375 -0.523438 0.191406 -0.710938 0.328125 -0.984375 L 2.5625 -5.90625 L 3.109375 -5.90625 L 5.28125 -0.96875 L 5.296875 -0.90625 C 5.484375 -0.5 5.640625 -0.265625 5.765625 -0.203125 L 5.765625 0 L 4.203125 0 L 4.203125 -0.203125 C 4.265625 -0.234375 4.3125 -0.269531 4.34375 -0.3125 C 4.382812 -0.363281 4.40625 -0.421875 4.40625 -0.484375 C 4.40625 -0.523438 4.394531 -0.578125 4.375 -0.640625 C 4.363281 -0.703125 4.34375 -0.769531 4.3125 -0.84375 L 3.96875 -1.671875 Z M 1.4375 -1.671875 "/></g></g></g><g fill="#000000" fill-opacity="1"><g transform="translate(35.270154, 9.110189)"><g><path d="M 0.421875 -5.90625 L 2 -5.90625 C 2.414062 -5.90625 2.734375 -5.890625 2.953125 -5.859375 C 3.171875 -5.835938 3.359375 -5.789062 3.515625 -5.71875 C 3.785156 -5.59375 3.992188 -5.421875 4.140625 -5.203125 C 4.285156 -4.984375 4.359375 -4.726562 4.359375 -4.4375 C 4.359375 -4.0625 4.238281 -3.75 4 -3.5 C 3.757812 -3.257812 3.410156 -3.09375 2.953125 -3 C 3.210938 -2.851562 3.476562 -2.625 3.75 -2.3125 C 4.019531 -2 4.28125 -1.617188 4.53125 -1.171875 C 4.570312 -1.109375 4.625 -1.015625 4.6875 -0.890625 C 4.894531 -0.492188 5.082031 -0.265625 5.25 -0.203125 L 5.25 0 L 3.71875 0 L 3.71875 -0.203125 C 3.75 -0.242188 3.769531 -0.28125 3.78125 -0.3125 C 3.789062 -0.34375 3.796875 -0.367188 3.796875 -0.390625 C 3.796875 -0.472656 3.742188 -0.613281 3.640625 -0.8125 C 3.546875 -1.019531 3.40625 -1.253906 3.21875 -1.515625 C 3.007812 -1.816406 2.796875 -2.078125 2.578125 -2.296875 C 2.367188 -2.515625 2.175781 -2.675781 2 -2.78125 L 2 -3.359375 C 2.457031 -3.390625 2.804688 -3.488281 3.046875 -3.65625 C 3.285156 -3.820312 3.40625 -4.054688 3.40625 -4.359375 C 3.40625 -4.660156 3.3125 -4.878906 3.125 -5.015625 C 2.9375 -5.148438 2.625 -5.21875 2.1875 -5.21875 L 1.703125 -5.21875 L 1.703125 -0.6875 C 1.703125 -0.53125 1.722656 -0.421875 1.765625 -0.359375 C 1.804688 -0.296875 1.878906 -0.242188 1.984375 -0.203125 L 1.984375 0 L 0.421875 0 L 0.421875 -0.203125 C 0.523438 -0.242188 0.597656 -0.296875 0.640625 -0.359375 C 0.679688 -0.421875 0.703125 -0.53125 0.703125 -0.6875 L 0.703125 -5.203125 C 0.703125 -5.367188 0.679688 -5.484375 0.640625 -5.546875 C 0.597656 -5.609375 0.523438 -5.660156 0.421875 -5.703125 Z M 0.421875 -5.90625 "/></g></g></g><g fill="#000000" fill-opacity="1"><g transform="translate(40.639007, 9.110189)"><g><path d="M 0.234375 -5.15625 C 0.222656 -5.175781 0.207031 -5.195312 0.1875 -5.21875 C 0.0078125 -5.457031 -0.132812 -5.617188 -0.25 -5.703125 L -0.25 -5.90625 L 1.3125 -5.90625 L 1.3125 -5.703125 C 1.269531 -5.671875 1.238281 -5.640625 1.21875 -5.609375 C 1.195312 -5.585938 1.1875 -5.5625 1.1875 -5.53125 C 1.1875 -5.5 1.191406 -5.46875 1.203125 -5.4375 C 1.210938 -5.40625 1.238281 -5.363281 1.28125 -5.3125 L 2.6875 -3.3125 L 4.09375 -5.234375 C 4.15625 -5.304688 4.203125 -5.367188 4.234375 -5.421875 C 4.265625 -5.472656 4.28125 -5.515625 4.28125 -5.546875 C 4.28125 -5.566406 4.265625 -5.59375 4.234375 -5.625 C 4.203125 -5.65625 4.164062 -5.679688 4.125 -5.703125 L 4.125 -5.90625 L 5.515625 -5.90625 L 5.515625 -5.703125 C 5.460938 -5.679688 5.390625 -5.625 5.296875 -5.53125 C 5.210938 -5.4375 5.09375 -5.289062 4.9375 -5.09375 L 3.140625 -2.703125 L 3.140625 -0.6875 C 3.140625 -0.53125 3.160156 -0.421875 3.203125 -0.359375 C 3.242188 -0.296875 3.316406 -0.242188 3.421875 -0.203125 L 3.421875 0 L 1.859375 0 L 1.859375 -0.203125 C 1.960938 -0.234375 2.035156 -0.28125 2.078125 -0.34375 C 2.117188 -0.414062 2.140625 -0.53125 2.140625 -0.6875 L 2.140625 -2.5625 Z M 0.234375 -5.15625 "/></g></g></g></g></g><g transform="matrix(1, 0, 0, 1, 111, 238)"><g clip-path="url(#ef5f2280a3)"><g fill="#000000" fill-opacity="1"><g transform="translate(1.641036, 15.767012)"><g><path d="M 0.125 0 L 0.125 -0.6875 C 2.625 -3.144531 4.203125 -4.867188 4.859375 -5.859375 C 5.523438 -6.847656 5.859375 -7.769531 5.859375 -8.625 C 5.859375 -9.21875 5.703125 -9.6875 5.390625 -10.03125 C 5.085938 -10.382812 4.675781 -10.5625 4.15625 -10.5625 C 3.726562 -10.5625 3.378906 -10.429688 3.109375 -10.171875 C 2.847656 -9.910156 2.71875 -9.578125 2.71875 -9.171875 C 2.71875 -8.929688 2.78125 -8.710938 2.90625 -8.515625 C 3.03125 -8.328125 3.210938 -8.160156 3.453125 -8.015625 L 3.203125 -7.515625 L 0.53125 -8.59375 C 0.757812 -9.613281 1.207031 -10.394531 1.875 -10.9375 C 2.550781 -11.488281 3.40625 -11.765625 4.4375 -11.765625 C 5.457031 -11.765625 6.273438 -11.472656 6.890625 -10.890625 C 7.515625 -10.316406 7.828125 -9.554688 7.828125 -8.609375 C 7.828125 -7.617188 7.421875 -6.566406 6.609375 -5.453125 C 5.796875 -4.335938 4.410156 -2.957031 2.453125 -1.3125 L 4.078125 -1.3125 C 5.085938 -1.3125 5.84375 -1.394531 6.34375 -1.5625 C 6.84375 -1.726562 7.21875 -2.007812 7.46875 -2.40625 L 8.046875 -2.15625 L 7.203125 0 Z M 0.125 0 "/></g></g></g><g fill="#000000" fill-opacity="1"><g transform="translate(10.447764, 15.767012)"><g><path d="M 1 -5.53125 L 2.0625 -11.578125 L 5.65625 -11.578125 C 6.269531 -11.578125 6.695312 -11.617188 6.9375 -11.703125 C 7.1875 -11.785156 7.375 -11.921875 7.5 -12.109375 L 7.921875 -11.875 C 7.648438 -11.1875 7.265625 -10.707031 6.765625 -10.4375 C 6.273438 -10.175781 5.488281 -10.046875 4.40625 -10.046875 C 4.132812 -10.046875 3.921875 -10.046875 3.765625 -10.046875 C 3.617188 -10.046875 3.484375 -10.050781 3.359375 -10.0625 L 2.875 -7.328125 C 3.144531 -7.390625 3.410156 -7.4375 3.671875 -7.46875 C 3.941406 -7.5 4.203125 -7.515625 4.453125 -7.515625 C 5.523438 -7.515625 6.375 -7.253906 7 -6.734375 C 7.625 -6.210938 7.9375 -5.515625 7.9375 -4.640625 C 7.9375 -3.285156 7.289062 -2.15625 6 -1.25 C 4.71875 -0.34375 3.03125 0.144531 0.9375 0.21875 L 0.9375 -0.625 C 2.507812 -0.832031 3.75 -1.269531 4.65625 -1.9375 C 5.5625 -2.601562 6.015625 -3.40625 6.015625 -4.34375 C 6.015625 -4.9375 5.828125 -5.398438 5.453125 -5.734375 C 5.085938 -6.078125 4.570312 -6.25 3.90625 -6.25 C 3.488281 -6.25 3.046875 -6.191406 2.578125 -6.078125 C 2.117188 -5.960938 1.59375 -5.78125 1 -5.53125 Z M 1 -5.53125 "/></g></g></g></g></g><g transform="matrix(1, 0, 0, 1, 112, 255)"><g clip-path="url(#b4aac54669)"><g clip-path="url(#03c66d7ff2)"><g fill="#000000" fill-opacity="1"><g transform="translate(0.495588, 8.279125)"><g><path d="M 0.0625 0 L 0.0625 -0.359375 C 1.332031 -1.597656 2.132812 -2.46875 2.46875 -2.96875 C 2.800781 -3.476562 2.96875 -3.945312 2.96875 -4.375 C 2.96875 -4.6875 2.890625 -4.929688 2.734375 -5.109375 C 2.585938 -5.285156 2.378906 -5.375 2.109375 -5.375 C 1.898438 -5.375 1.722656 -5.304688 1.578125 -5.171875 C 1.441406 -5.035156 1.375 -4.863281 1.375 -4.65625 C 1.375 -4.539062 1.40625 -4.429688 1.46875 -4.328125 C 1.53125 -4.234375 1.625 -4.148438 1.75 -4.078125 L 1.625 -3.828125 L 0.265625 -4.359375 C 0.390625 -4.878906 0.617188 -5.28125 0.953125 -5.5625 C 1.296875 -5.84375 1.726562 -5.984375 2.25 -5.984375 C 2.769531 -5.984375 3.1875 -5.832031 3.5 -5.53125 C 3.820312 -5.238281 3.984375 -4.851562 3.984375 -4.375 C 3.984375 -3.875 3.773438 -3.335938 3.359375 -2.765625 C 2.941406 -2.203125 2.238281 -1.503906 1.25 -0.671875 L 2.078125 -0.671875 C 2.585938 -0.671875 2.96875 -0.710938 3.21875 -0.796875 C 3.476562 -0.878906 3.671875 -1.019531 3.796875 -1.21875 L 4.09375 -1.09375 L 3.65625 0 Z M 0.0625 0 "/></g></g></g></g><g fill="#000000" fill-opacity="1"><g transform="translate(4.973564, 8.279125)"><g><path d="M 2.234375 -5.28125 C 1.941406 -5.28125 1.707031 -5.078125 1.53125 -4.671875 C 1.351562 -4.265625 1.265625 -3.71875 1.265625 -3.03125 C 1.265625 -2.25 1.347656 -1.648438 1.515625 -1.234375 C 1.691406 -0.816406 1.929688 -0.609375 2.234375 -0.609375 C 2.546875 -0.609375 2.785156 -0.8125 2.953125 -1.21875 C 3.117188 -1.625 3.203125 -2.195312 3.203125 -2.9375 C 3.203125 -3.6875 3.117188 -4.265625 2.953125 -4.671875 C 2.785156 -5.078125 2.546875 -5.28125 2.234375 -5.28125 Z M 2.234375 0.09375 C 1.660156 0.09375 1.1875 -0.1875 0.8125 -0.75 C 0.4375 -1.320312 0.25 -2.050781 0.25 -2.9375 C 0.25 -3.832031 0.4375 -4.5625 0.8125 -5.125 C 1.195312 -5.695312 1.671875 -5.984375 2.234375 -5.984375 C 2.804688 -5.984375 3.28125 -5.695312 3.65625 -5.125 C 4.039062 -4.5625 4.234375 -3.832031 4.234375 -2.9375 C 4.234375 -2.050781 4.039062 -1.320312 3.65625 -0.75 C 3.28125 -0.1875 2.804688 0.09375 2.234375 0.09375 Z M 2.234375 0.09375 "/></g></g></g><g fill="#000000" fill-opacity="1"><g transform="translate(9.45154, 8.279125)"><g><path d="M 0.0625 0 L 0.0625 -0.359375 C 1.332031 -1.597656 2.132812 -2.46875 2.46875 -2.96875 C 2.800781 -3.476562 2.96875 -3.945312 2.96875 -4.375 C 2.96875 -4.6875 2.890625 -4.929688 2.734375 -5.109375 C 2.585938 -5.285156 2.378906 -5.375 2.109375 -5.375 C 1.898438 -5.375 1.722656 -5.304688 1.578125 -5.171875 C 1.441406 -5.035156 1.375 -4.863281 1.375 -4.65625 C 1.375 -4.539062 1.40625 -4.429688 1.46875 -4.328125 C 1.53125 -4.234375 1.625 -4.148438 1.75 -4.078125 L 1.625 -3.828125 L 0.265625 -4.359375 C 0.390625 -4.878906 0.617188 -5.28125 0.953125 -5.5625 C 1.296875 -5.84375 1.726562 -5.984375 2.25 -5.984375 C 2.769531 -5.984375 3.1875 -5.832031 3.5 -5.53125 C 3.820312 -5.238281 3.984375 -4.851562 3.984375 -4.375 C 3.984375 -3.875 3.773438 -3.335938 3.359375 -2.765625 C 2.941406 -2.203125 2.238281 -1.503906 1.25 -0.671875 L 2.078125 -0.671875 C 2.585938 -0.671875 2.96875 -0.710938 3.21875 -0.796875 C 3.476562 -0.878906 3.671875 -1.019531 3.796875 -1.21875 L 4.09375 -1.09375 L 3.65625 0 Z M 0.0625 0 "/></g></g></g><g fill="#000000" fill-opacity="1"><g transform="translate(13.929516, 8.279125)"><g><path d="M 4.234375 -5.59375 C 3.398438 -5.382812 2.703125 -4.9375 2.140625 -4.25 C 1.578125 -3.570312 1.296875 -2.832031 1.296875 -2.03125 C 1.296875 -1.582031 1.394531 -1.210938 1.59375 -0.921875 C 1.800781 -0.628906 2.054688 -0.484375 2.359375 -0.484375 C 2.617188 -0.484375 2.820312 -0.582031 2.96875 -0.78125 C 3.125 -0.976562 3.203125 -1.242188 3.203125 -1.578125 C 3.203125 -2.015625 3.109375 -2.351562 2.921875 -2.59375 C 2.734375 -2.84375 2.476562 -2.96875 2.15625 -2.96875 C 2.070312 -2.96875 1.988281 -2.957031 1.90625 -2.9375 C 1.820312 -2.925781 1.738281 -2.898438 1.65625 -2.859375 L 1.765625 -3.375 C 1.878906 -3.414062 1.988281 -3.445312 2.09375 -3.46875 C 2.195312 -3.488281 2.300781 -3.5 2.40625 -3.5 C 2.945312 -3.5 3.375 -3.34375 3.6875 -3.03125 C 4 -2.71875 4.15625 -2.289062 4.15625 -1.75 C 4.15625 -1.1875 3.988281 -0.738281 3.65625 -0.40625 C 3.332031 -0.0703125 2.894531 0.09375 2.34375 0.09375 C 1.75 0.09375 1.257812 -0.109375 0.875 -0.515625 C 0.488281 -0.921875 0.296875 -1.4375 0.296875 -2.0625 C 0.296875 -2.695312 0.492188 -3.3125 0.890625 -3.90625 C 1.285156 -4.5 1.820312 -4.992188 2.5 -5.390625 C 2.800781 -5.566406 3.085938 -5.703125 3.359375 -5.796875 C 3.628906 -5.898438 3.890625 -5.960938 4.140625 -5.984375 Z M 4.234375 -5.59375 "/></g></g></g></g></g><g fill="#000000" fill-opacity="1"><g transform="translate(174.07347, 253.02587)"><g><path d="M 5.96875 -4.984375 C 5.769531 -5.398438 5.492188 -5.707031 5.140625 -5.90625 C 4.785156 -6.113281 4.335938 -6.21875 3.796875 -6.21875 C 3.066406 -6.21875 2.488281 -5.984375 2.0625 -5.515625 C 1.632812 -5.046875 1.421875 -4.410156 1.421875 -3.609375 C 1.421875 -2.773438 1.660156 -2.085938 2.140625 -1.546875 C 2.628906 -1.015625 3.25 -0.75 4 -0.75 C 4.5 -0.75 4.960938 -0.882812 5.390625 -1.15625 C 5.816406 -1.425781 6.195312 -1.828125 6.53125 -2.359375 L 7.015625 -1.84375 C 6.597656 -1.175781 6.117188 -0.679688 5.578125 -0.359375 C 5.035156 -0.046875 4.410156 0.109375 3.703125 0.109375 C 2.691406 0.109375 1.875 -0.210938 1.25 -0.859375 C 0.632812 -1.503906 0.328125 -2.359375 0.328125 -3.421875 C 0.328125 -4.429688 0.644531 -5.273438 1.28125 -5.953125 C 1.925781 -6.640625 2.71875 -6.984375 3.65625 -6.984375 C 4.144531 -6.984375 4.660156 -6.890625 5.203125 -6.703125 C 5.367188 -6.648438 5.472656 -6.625 5.515625 -6.625 C 5.554688 -6.625 5.597656 -6.632812 5.640625 -6.65625 C 5.679688 -6.675781 5.71875 -6.710938 5.75 -6.765625 L 5.953125 -6.71875 L 6.265625 -5.078125 Z M 5.96875 -4.984375 "/></g></g></g><g fill="#000000" fill-opacity="1"><g transform="translate(181.600179, 253.02587)"><g><path d="M 3.828125 -1.640625 C 3.828125 -2.066406 3.648438 -2.460938 3.296875 -2.828125 C 2.953125 -3.203125 2.578125 -3.390625 2.171875 -3.390625 C 1.867188 -3.390625 1.625 -3.296875 1.4375 -3.109375 C 1.257812 -2.921875 1.171875 -2.671875 1.171875 -2.359375 C 1.171875 -1.921875 1.34375 -1.515625 1.6875 -1.140625 C 2.039062 -0.773438 2.425781 -0.59375 2.84375 -0.59375 C 3.144531 -0.59375 3.382812 -0.6875 3.5625 -0.875 C 3.738281 -1.0625 3.828125 -1.316406 3.828125 -1.640625 Z M 2.484375 -4.109375 C 3.109375 -4.109375 3.632812 -3.894531 4.0625 -3.46875 C 4.5 -3.050781 4.71875 -2.546875 4.71875 -1.953125 C 4.71875 -1.390625 4.503906 -0.90625 4.078125 -0.5 C 3.648438 -0.09375 3.140625 0.109375 2.546875 0.109375 C 1.890625 0.109375 1.347656 -0.0820312 0.921875 -0.46875 C 0.492188 -0.863281 0.28125 -1.363281 0.28125 -1.96875 C 0.28125 -2.570312 0.488281 -3.078125 0.90625 -3.484375 C 1.332031 -3.898438 1.859375 -4.109375 2.484375 -4.109375 Z M 2.484375 -4.109375 "/></g></g></g><g fill="#000000" fill-opacity="1"><g transform="translate(186.999811, 253.02587)"><g><path d="M 3.28125 -2.75 C 3.28125 -2.96875 3.207031 -3.140625 3.0625 -3.265625 C 2.925781 -3.390625 2.734375 -3.453125 2.484375 -3.453125 C 2.367188 -3.453125 2.238281 -3.429688 2.09375 -3.390625 C 1.957031 -3.347656 1.789062 -3.28125 1.59375 -3.1875 L 1.59375 -0.796875 C 1.59375 -0.617188 1.613281 -0.488281 1.65625 -0.40625 C 1.707031 -0.332031 1.796875 -0.273438 1.921875 -0.234375 L 1.921875 0 L 0.3125 0 L 0.3125 -0.234375 C 0.4375 -0.285156 0.519531 -0.347656 0.5625 -0.421875 C 0.613281 -0.492188 0.640625 -0.617188 0.640625 -0.796875 L 0.640625 -2.859375 C 0.640625 -2.984375 0.617188 -3.066406 0.578125 -3.109375 C 0.535156 -3.148438 0.445312 -3.179688 0.3125 -3.203125 L 0.3125 -3.4375 L 1.3125 -4.109375 L 1.59375 -3.96875 L 1.59375 -3.640625 C 1.925781 -3.816406 2.1875 -3.9375 2.375 -4 C 2.570312 -4.070312 2.757812 -4.109375 2.9375 -4.109375 C 3.125 -4.109375 3.296875 -4.066406 3.453125 -3.984375 C 3.609375 -3.910156 3.773438 -3.789062 3.953125 -3.625 C 4.296875 -3.8125 4.566406 -3.9375 4.765625 -4 C 4.972656 -4.070312 5.164062 -4.109375 5.34375 -4.109375 C 5.601562 -4.109375 5.832031 -4.050781 6.03125 -3.9375 C 6.226562 -3.832031 6.40625 -3.675781 6.5625 -3.46875 C 6.644531 -3.363281 6.703125 -3.253906 6.734375 -3.140625 C 6.773438 -3.035156 6.796875 -2.925781 6.796875 -2.8125 C 6.796875 -2.78125 6.796875 -2.738281 6.796875 -2.6875 C 6.796875 -2.632812 6.796875 -2.59375 6.796875 -2.5625 L 6.796875 -0.796875 C 6.796875 -0.617188 6.816406 -0.492188 6.859375 -0.421875 C 6.910156 -0.347656 7 -0.285156 7.125 -0.234375 L 7.125 0 L 5.515625 0 L 5.515625 -0.234375 C 5.640625 -0.285156 5.722656 -0.347656 5.765625 -0.421875 C 5.816406 -0.492188 5.84375 -0.617188 5.84375 -0.796875 L 5.84375 -2.75 C 5.84375 -2.976562 5.773438 -3.148438 5.640625 -3.265625 C 5.515625 -3.390625 5.335938 -3.453125 5.109375 -3.453125 C 4.972656 -3.453125 4.835938 -3.429688 4.703125 -3.390625 C 4.566406 -3.347656 4.410156 -3.28125 4.234375 -3.1875 L 4.234375 -0.796875 C 4.234375 -0.617188 4.253906 -0.492188 4.296875 -0.421875 C 4.347656 -0.347656 4.4375 -0.285156 4.5625 -0.234375 L 4.5625 0 L 2.953125 0 L 2.953125 -0.234375 C 3.078125 -0.285156 3.160156 -0.347656 3.203125 -0.421875 C 3.253906 -0.492188 3.28125 -0.617188 3.28125 -0.796875 Z M 3.28125 -2.75 "/></g></g></g><g fill="#000000" fill-opacity="1"><g transform="translate(194.783646, 253.02587)"><g><path d="M 3.28125 -2.75 C 3.28125 -2.96875 3.207031 -3.140625 3.0625 -3.265625 C 2.925781 -3.390625 2.734375 -3.453125 2.484375 -3.453125 C 2.367188 -3.453125 2.238281 -3.429688 2.09375 -3.390625 C 1.957031 -3.347656 1.789062 -3.28125 1.59375 -3.1875 L 1.59375 -0.796875 C 1.59375 -0.617188 1.613281 -0.488281 1.65625 -0.40625 C 1.707031 -0.332031 1.796875 -0.273438 1.921875 -0.234375 L 1.921875 0 L 0.3125 0 L 0.3125 -0.234375 C 0.4375 -0.285156 0.519531 -0.347656 0.5625 -0.421875 C 0.613281 -0.492188 0.640625 -0.617188 0.640625 -0.796875 L 0.640625 -2.859375 C 0.640625 -2.984375 0.617188 -3.066406 0.578125 -3.109375 C 0.535156 -3.148438 0.445312 -3.179688 0.3125 -3.203125 L 0.3125 -3.4375 L 1.3125 -4.109375 L 1.59375 -3.96875 L 1.59375 -3.640625 C 1.925781 -3.816406 2.1875 -3.9375 2.375 -4 C 2.570312 -4.070312 2.757812 -4.109375 2.9375 -4.109375 C 3.125 -4.109375 3.296875 -4.066406 3.453125 -3.984375 C 3.609375 -3.910156 3.773438 -3.789062 3.953125 -3.625 C 4.296875 -3.8125 4.566406 -3.9375 4.765625 -4 C 4.972656 -4.070312 5.164062 -4.109375 5.34375 -4.109375 C 5.601562 -4.109375 5.832031 -4.050781 6.03125 -3.9375 C 6.226562 -3.832031 6.40625 -3.675781 6.5625 -3.46875 C 6.644531 -3.363281 6.703125 -3.253906 6.734375 -3.140625 C 6.773438 -3.035156 6.796875 -2.925781 6.796875 -2.8125 C 6.796875 -2.78125 6.796875 -2.738281 6.796875 -2.6875 C 6.796875 -2.632812 6.796875 -2.59375 6.796875 -2.5625 L 6.796875 -0.796875 C 6.796875 -0.617188 6.816406 -0.492188 6.859375 -0.421875 C 6.910156 -0.347656 7 -0.285156 7.125 -0.234375 L 7.125 0 L 5.515625 0 L 5.515625 -0.234375 C 5.640625 -0.285156 5.722656 -0.347656 5.765625 -0.421875 C 5.816406 -0.492188 5.84375 -0.617188 5.84375 -0.796875 L 5.84375 -2.75 C 5.84375 -2.976562 5.773438 -3.148438 5.640625 -3.265625 C 5.515625 -3.390625 5.335938 -3.453125 5.109375 -3.453125 C 4.972656 -3.453125 4.835938 -3.429688 4.703125 -3.390625 C 4.566406 -3.347656 4.410156 -3.28125 4.234375 -3.1875 L 4.234375 -0.796875 C 4.234375 -0.617188 4.253906 -0.492188 4.296875 -0.421875 C 4.347656 -0.347656 4.4375 -0.285156 4.5625 -0.234375 L 4.5625 0 L 2.953125 0 L 2.953125 -0.234375 C 3.078125 -0.285156 3.160156 -0.347656 3.203125 -0.421875 C 3.253906 -0.492188 3.28125 -0.617188 3.28125 -0.796875 Z M 3.28125 -2.75 "/></g></g></g><g fill="#000000" fill-opacity="1"><g transform="translate(202.567482, 253.02587)"><g><path d="M 0.59375 -2.859375 C 0.59375 -2.992188 0.566406 -3.078125 0.515625 -3.109375 C 0.472656 -3.148438 0.390625 -3.179688 0.265625 -3.203125 L 0.265625 -3.4375 L 1.265625 -4.109375 L 1.546875 -3.96875 L 1.546875 -1.640625 C 1.546875 -1.296875 1.628906 -1.03125 1.796875 -0.84375 C 1.972656 -0.65625 2.21875 -0.5625 2.53125 -0.5625 C 2.664062 -0.5625 2.8125 -0.582031 2.96875 -0.625 C 3.125 -0.675781 3.300781 -0.753906 3.5 -0.859375 L 3.5 -3.1875 C 3.5 -3.363281 3.472656 -3.488281 3.421875 -3.5625 C 3.378906 -3.632812 3.296875 -3.695312 3.171875 -3.75 L 3.171875 -4 L 4.453125 -4 L 4.453125 -1.21875 C 4.453125 -1.050781 4.472656 -0.9375 4.515625 -0.875 C 4.566406 -0.8125 4.660156 -0.773438 4.796875 -0.765625 L 4.796875 -0.53125 L 3.765625 0.109375 L 3.5 0.109375 L 3.5 -0.375 C 3.269531 -0.207031 3.050781 -0.0820312 2.84375 0 C 2.644531 0.0703125 2.4375 0.109375 2.21875 0.109375 C 1.789062 0.109375 1.410156 -0.0507812 1.078125 -0.375 C 0.753906 -0.695312 0.59375 -1.066406 0.59375 -1.484375 Z M 0.59375 -2.859375 "/></g></g></g><g fill="#000000" fill-opacity="1"><g transform="translate(208.055931, 253.02587)"><g><path d="M 1.59375 -0.796875 C 1.59375 -0.617188 1.613281 -0.488281 1.65625 -0.40625 C 1.707031 -0.332031 1.796875 -0.273438 1.921875 -0.234375 L 1.921875 0 L 0.3125 0 L 0.3125 -0.234375 C 0.4375 -0.285156 0.519531 -0.347656 0.5625 -0.421875 C 0.613281 -0.492188 0.640625 -0.617188 0.640625 -0.796875 L 0.640625 -2.859375 C 0.640625 -2.984375 0.617188 -3.066406 0.578125 -3.109375 C 0.535156 -3.148438 0.445312 -3.179688 0.3125 -3.203125 L 0.3125 -3.4375 L 1.3125 -4.109375 L 1.59375 -3.96875 L 1.59375 -3.640625 C 1.945312 -3.816406 2.226562 -3.9375 2.4375 -4 C 2.644531 -4.070312 2.835938 -4.109375 3.015625 -4.109375 C 3.253906 -4.109375 3.476562 -4.050781 3.6875 -3.9375 C 3.90625 -3.832031 4.085938 -3.675781 4.234375 -3.46875 C 4.328125 -3.351562 4.394531 -3.238281 4.4375 -3.125 C 4.476562 -3.019531 4.5 -2.890625 4.5 -2.734375 L 4.5 -0.796875 C 4.5 -0.617188 4.523438 -0.492188 4.578125 -0.421875 C 4.628906 -0.347656 4.710938 -0.285156 4.828125 -0.234375 L 4.828125 0 L 3.21875 0 L 3.21875 -0.234375 C 3.34375 -0.273438 3.425781 -0.332031 3.46875 -0.40625 C 3.519531 -0.488281 3.546875 -0.617188 3.546875 -0.796875 L 3.546875 -2.75 C 3.546875 -2.976562 3.460938 -3.148438 3.296875 -3.265625 C 3.140625 -3.390625 2.921875 -3.453125 2.640625 -3.453125 C 2.492188 -3.453125 2.335938 -3.429688 2.171875 -3.390625 C 2.003906 -3.347656 1.8125 -3.28125 1.59375 -3.1875 Z M 1.59375 -0.796875 "/></g></g></g><g fill="#000000" fill-opacity="1"><g transform="translate(213.544379, 253.02587)"><g><path d="M 1.59375 -0.796875 C 1.59375 -0.617188 1.613281 -0.488281 1.65625 -0.40625 C 1.707031 -0.332031 1.796875 -0.273438 1.921875 -0.234375 L 1.921875 0 L 0.3125 0 L 0.3125 -0.234375 C 0.4375 -0.285156 0.519531 -0.347656 0.5625 -0.421875 C 0.613281 -0.492188 0.640625 -0.617188 0.640625 -0.796875 L 0.640625 -2.859375 C 0.640625 -2.984375 0.617188 -3.066406 0.578125 -3.109375 C 0.535156 -3.148438 0.445312 -3.179688 0.3125 -3.203125 L 0.3125 -3.4375 L 1.3125 -4.109375 L 1.59375 -3.96875 Z M 0.6875 -5.15625 L 0.6875 -6.125 L 1.546875 -6.5 L 1.546875 -5.515625 Z M 0.6875 -5.15625 "/></g></g></g><g fill="#000000" fill-opacity="1"><g transform="translate(216.148414, 253.02587)"><g><path d="M 0.640625 -3.40625 L 0.234375 -3.40625 L 0.234375 -3.921875 C 0.535156 -3.953125 0.757812 -4.039062 0.90625 -4.1875 C 1.050781 -4.332031 1.132812 -4.546875 1.15625 -4.828125 L 1.59375 -4.828125 L 1.59375 -4 L 2.578125 -4 L 2.578125 -3.40625 L 1.59375 -3.40625 L 1.59375 -0.984375 C 1.59375 -0.804688 1.617188 -0.675781 1.671875 -0.59375 C 1.734375 -0.519531 1.828125 -0.484375 1.953125 -0.484375 C 2.015625 -0.484375 2.082031 -0.492188 2.15625 -0.515625 C 2.226562 -0.546875 2.335938 -0.609375 2.484375 -0.703125 L 2.65625 -0.453125 C 2.457031 -0.265625 2.265625 -0.125 2.078125 -0.03125 C 1.898438 0.0625 1.738281 0.109375 1.59375 0.109375 C 1.457031 0.109375 1.328125 0.078125 1.203125 0.015625 C 1.078125 -0.0351562 0.96875 -0.109375 0.875 -0.203125 C 0.789062 -0.296875 0.726562 -0.382812 0.6875 -0.46875 C 0.65625 -0.550781 0.640625 -0.660156 0.640625 -0.796875 Z M 0.640625 -3.40625 "/></g></g></g><g fill="#000000" fill-opacity="1"><g transform="translate(219.243308, 253.02587)"><g><path d="M 1.765625 -0.484375 L -0.015625 -3.796875 L -0.015625 -4 L 1.4375 -4 L 1.4375 -3.75 C 1.363281 -3.71875 1.304688 -3.679688 1.265625 -3.640625 C 1.234375 -3.609375 1.21875 -3.566406 1.21875 -3.515625 C 1.21875 -3.492188 1.222656 -3.46875 1.234375 -3.4375 C 1.242188 -3.414062 1.253906 -3.390625 1.265625 -3.359375 L 2.265625 -1.359375 L 3.25 -3.34375 C 3.257812 -3.363281 3.265625 -3.390625 3.265625 -3.421875 C 3.273438 -3.453125 3.28125 -3.484375 3.28125 -3.515625 C 3.28125 -3.566406 3.265625 -3.609375 3.234375 -3.640625 C 3.203125 -3.679688 3.148438 -3.71875 3.078125 -3.75 L 3.078125 -4 L 4.28125 -4 L 4.28125 -3.75 L 2.703125 -0.75 C 2.421875 -0.207031 2.140625 0.269531 1.859375 0.6875 C 1.578125 1.101562 1.304688 1.441406 1.046875 1.703125 L -0.09375 1.703125 L -0.09375 1.46875 C 0.195312 1.414062 0.492188 1.226562 0.796875 0.90625 C 1.097656 0.59375 1.421875 0.128906 1.765625 -0.484375 Z M 1.765625 -0.484375 "/></g></g></g><g fill="#000000" fill-opacity="1"><g transform="translate(223.885603, 253.02587)"><g/></g></g><g fill="#000000" fill-opacity="1"><g transform="translate(226.89168, 253.02587)"><g><path d="M 2.3125 -6.875 L 2.3125 -6.625 C 2.1875 -6.582031 2.097656 -6.519531 2.046875 -6.4375 C 1.992188 -6.363281 1.96875 -6.242188 1.96875 -6.078125 L 1.96875 -4.328125 L 6.40625 -4.328125 L 6.40625 -6.078125 C 6.40625 -6.253906 6.378906 -6.378906 6.328125 -6.453125 C 6.285156 -6.523438 6.203125 -6.582031 6.078125 -6.625 L 6.078125 -6.875 L 7.890625 -6.875 L 7.890625 -6.625 C 7.765625 -6.582031 7.675781 -6.519531 7.625 -6.4375 C 7.582031 -6.363281 7.5625 -6.242188 7.5625 -6.078125 L 7.5625 -0.796875 C 7.5625 -0.617188 7.582031 -0.488281 7.625 -0.40625 C 7.675781 -0.332031 7.765625 -0.273438 7.890625 -0.234375 L 7.890625 0 L 6.078125 0 L 6.078125 -0.234375 C 6.191406 -0.273438 6.273438 -0.332031 6.328125 -0.40625 C 6.378906 -0.488281 6.40625 -0.617188 6.40625 -0.796875 L 6.40625 -3.46875 L 1.96875 -3.46875 L 1.96875 -0.796875 C 1.96875 -0.617188 1.992188 -0.488281 2.046875 -0.40625 C 2.097656 -0.332031 2.1875 -0.273438 2.3125 -0.234375 L 2.3125 0 L 0.484375 0 L 0.484375 -0.234375 C 0.609375 -0.273438 0.695312 -0.332031 0.75 -0.40625 C 0.800781 -0.488281 0.828125 -0.617188 0.828125 -0.796875 L 0.828125 -6.078125 C 0.828125 -6.253906 0.800781 -6.378906 0.75 -6.453125 C 0.695312 -6.523438 0.609375 -6.582031 0.484375 -6.625 L 0.484375 -6.875 Z M 2.3125 -6.875 "/></g></g></g><g fill="#000000" fill-opacity="1"><g transform="translate(235.661916, 253.02587)"><g><path d="M 2.859375 -0.890625 C 2.828125 -1.015625 2.796875 -1.144531 2.765625 -1.28125 C 2.742188 -1.425781 2.710938 -1.617188 2.671875 -1.859375 C 2.535156 -1.816406 2.347656 -1.757812 2.109375 -1.6875 C 1.503906 -1.5 1.203125 -1.289062 1.203125 -1.0625 C 1.203125 -0.90625 1.25 -0.785156 1.34375 -0.703125 C 1.445312 -0.617188 1.597656 -0.578125 1.796875 -0.578125 C 1.960938 -0.578125 2.140625 -0.601562 2.328125 -0.65625 C 2.523438 -0.71875 2.703125 -0.796875 2.859375 -0.890625 Z M 3.046875 -0.390625 C 2.773438 -0.222656 2.503906 -0.0976562 2.234375 -0.015625 C 1.972656 0.0664062 1.738281 0.109375 1.53125 0.109375 C 1.144531 0.109375 0.832031 0.0078125 0.59375 -0.1875 C 0.363281 -0.382812 0.25 -0.640625 0.25 -0.953125 C 0.25 -1.523438 1.003906 -2.007812 2.515625 -2.40625 L 2.578125 -2.421875 L 2.546875 -2.609375 C 2.484375 -2.992188 2.40625 -3.226562 2.3125 -3.3125 C 2.226562 -3.40625 2.09375 -3.453125 1.90625 -3.453125 C 1.6875 -3.453125 1.515625 -3.382812 1.390625 -3.25 C 1.273438 -3.125 1.21875 -2.945312 1.21875 -2.71875 C 1.21875 -2.707031 1.21875 -2.6875 1.21875 -2.65625 C 1.226562 -2.632812 1.234375 -2.609375 1.234375 -2.578125 L 1.03125 -2.46875 L 0.484375 -3.125 C 0.796875 -3.46875 1.082031 -3.71875 1.34375 -3.875 C 1.613281 -4.03125 1.894531 -4.109375 2.1875 -4.109375 C 2.90625 -4.109375 3.363281 -3.476562 3.5625 -2.21875 C 3.570312 -2.144531 3.582031 -2.085938 3.59375 -2.046875 L 3.59375 -2.015625 C 3.757812 -1.015625 3.957031 -0.515625 4.1875 -0.515625 C 4.25 -0.515625 4.300781 -0.53125 4.34375 -0.5625 C 4.394531 -0.59375 4.441406 -0.644531 4.484375 -0.71875 L 4.734375 -0.578125 C 4.648438 -0.347656 4.53125 -0.175781 4.375 -0.0625 C 4.21875 0.0507812 4.035156 0.109375 3.828125 0.109375 C 3.660156 0.109375 3.515625 0.0703125 3.390625 0 C 3.265625 -0.0820312 3.148438 -0.210938 3.046875 -0.390625 Z M 3.046875 -0.390625 "/></g></g></g><g fill="#000000" fill-opacity="1"><g transform="translate(240.622106, 253.02587)"><g><path d="M 1.625 -0.796875 C 1.625 -0.617188 1.644531 -0.492188 1.6875 -0.421875 C 1.738281 -0.347656 1.828125 -0.285156 1.953125 -0.234375 L 1.953125 0 L 0.3125 0 L 0.3125 -0.234375 C 0.445312 -0.285156 0.539062 -0.347656 0.59375 -0.421875 C 0.644531 -0.492188 0.671875 -0.617188 0.671875 -0.796875 L 0.671875 -5.53125 C 0.671875 -5.707031 0.644531 -5.828125 0.59375 -5.890625 C 0.539062 -5.953125 0.445312 -5.984375 0.3125 -5.984375 L 0.3125 -6.21875 L 1.359375 -6.875 L 1.625 -6.875 Z M 1.625 -0.796875 "/></g></g></g><g fill="#000000" fill-opacity="1"><g transform="translate(243.314957, 253.02587)"><g><path d="M 1.625 -0.796875 C 1.625 -0.617188 1.644531 -0.492188 1.6875 -0.421875 C 1.738281 -0.347656 1.828125 -0.285156 1.953125 -0.234375 L 1.953125 0 L 0.3125 0 L 0.3125 -0.234375 C 0.445312 -0.285156 0.539062 -0.347656 0.59375 -0.421875 C 0.644531 -0.492188 0.671875 -0.617188 0.671875 -0.796875 L 0.671875 -5.53125 C 0.671875 -5.707031 0.644531 -5.828125 0.59375 -5.890625 C 0.539062 -5.953125 0.445312 -5.984375 0.3125 -5.984375 L 0.3125 -6.21875 L 1.359375 -6.875 L 1.625 -6.875 Z M 1.625 -0.796875 "/></g></g></g><g fill="#000000" fill-opacity="1"><g transform="translate(246.01487, 253.02587)"><g><path d="M 0.390625 0.9375 L 1.078125 -0.0625 L 0.703125 -0.390625 L 1.234375 -1 L 1.890625 -0.40625 L 0.609375 1.03125 Z M 0.390625 0.9375 "/></g></g></g><g fill="#000000" fill-opacity="1"><g transform="translate(162.82347, 262.775869)"><g><path d="M 4.1875 -2.171875 L 1.890625 -5.796875 L 1.28125 -0.96875 C 1.28125 -0.9375 1.273438 -0.898438 1.265625 -0.859375 C 1.265625 -0.828125 1.265625 -0.75 1.265625 -0.625 C 1.265625 -0.488281 1.285156 -0.390625 1.328125 -0.328125 C 1.378906 -0.265625 1.460938 -0.222656 1.578125 -0.203125 L 1.578125 0 L 0.28125 0 L 0.28125 -0.203125 C 0.382812 -0.222656 0.460938 -0.289062 0.515625 -0.40625 C 0.578125 -0.519531 0.625 -0.703125 0.65625 -0.953125 L 1.328125 -6.5 C 1.253906 -6.507812 1.1875 -6.515625 1.125 -6.515625 C 1.0625 -6.523438 0.988281 -6.53125 0.90625 -6.53125 C 0.84375 -6.53125 0.765625 -6.523438 0.671875 -6.515625 C 0.585938 -6.515625 0.488281 -6.507812 0.375 -6.5 L 0.375 -6.734375 C 0.5625 -6.785156 0.769531 -6.820312 1 -6.84375 C 1.226562 -6.863281 1.476562 -6.875 1.75 -6.875 C 1.800781 -6.875 1.851562 -6.875 1.90625 -6.875 C 1.96875 -6.875 2.03125 -6.867188 2.09375 -6.859375 L 4.359375 -3.28125 L 6.46875 -6.875 L 7.015625 -6.875 C 7.203125 -6.875 7.382812 -6.863281 7.5625 -6.84375 C 7.75 -6.820312 7.9375 -6.785156 8.125 -6.734375 L 8.125 -6.5 C 8.007812 -6.507812 7.914062 -6.515625 7.84375 -6.515625 C 7.78125 -6.523438 7.738281 -6.53125 7.71875 -6.53125 C 7.644531 -6.53125 7.507812 -6.523438 7.3125 -6.515625 C 7.28125 -6.515625 7.257812 -6.515625 7.25 -6.515625 L 7.984375 -0.953125 C 8.023438 -0.679688 8.070312 -0.492188 8.125 -0.390625 C 8.1875 -0.285156 8.269531 -0.222656 8.375 -0.203125 L 8.375 0 L 6.890625 0 L 6.890625 -0.203125 C 7.003906 -0.222656 7.085938 -0.265625 7.140625 -0.328125 C 7.191406 -0.398438 7.21875 -0.5 7.21875 -0.625 C 7.21875 -0.707031 7.210938 -0.773438 7.203125 -0.828125 C 7.203125 -0.890625 7.195312 -0.9375 7.1875 -0.96875 L 6.546875 -5.828125 L 4.390625 -2.171875 Z M 4.1875 -2.171875 "/></g></g></g><g fill="#000000" fill-opacity="1"><g transform="translate(171.860182, 262.775869)"><g><path d="M 2.9375 -0.921875 C 2.882812 -1.109375 2.835938 -1.296875 2.796875 -1.484375 C 2.753906 -1.679688 2.71875 -1.867188 2.6875 -2.046875 C 2.507812 -1.984375 2.273438 -1.898438 1.984375 -1.796875 C 1.304688 -1.554688 0.96875 -1.304688 0.96875 -1.046875 C 0.96875 -0.878906 1.023438 -0.742188 1.140625 -0.640625 C 1.265625 -0.546875 1.429688 -0.5 1.640625 -0.5 C 1.847656 -0.5 2.0625 -0.535156 2.28125 -0.609375 C 2.507812 -0.679688 2.726562 -0.785156 2.9375 -0.921875 Z M 3.046875 -0.53125 C 2.804688 -0.320312 2.550781 -0.160156 2.28125 -0.046875 C 2.007812 0.0546875 1.742188 0.109375 1.484375 0.109375 C 1.117188 0.109375 0.832031 0.015625 0.625 -0.171875 C 0.414062 -0.359375 0.3125 -0.613281 0.3125 -0.9375 C 0.3125 -1.476562 0.847656 -1.910156 1.921875 -2.234375 C 2.222656 -2.328125 2.457031 -2.398438 2.625 -2.453125 C 2.550781 -2.910156 2.460938 -3.21875 2.359375 -3.375 C 2.265625 -3.539062 2.128906 -3.625 1.953125 -3.625 C 1.734375 -3.625 1.539062 -3.550781 1.375 -3.40625 C 1.21875 -3.257812 1.140625 -3.09375 1.140625 -2.90625 C 1.140625 -2.863281 1.144531 -2.820312 1.15625 -2.78125 C 1.164062 -2.738281 1.179688 -2.679688 1.203125 -2.609375 L 1.046875 -2.515625 L 0.515625 -3.15625 C 0.796875 -3.476562 1.0625 -3.71875 1.3125 -3.875 C 1.570312 -4.03125 1.835938 -4.109375 2.109375 -4.109375 C 2.734375 -4.109375 3.164062 -3.453125 3.40625 -2.140625 L 3.40625 -2.09375 L 3.421875 -2.046875 C 3.617188 -0.972656 3.828125 -0.4375 4.046875 -0.4375 C 4.109375 -0.4375 4.164062 -0.453125 4.21875 -0.484375 C 4.269531 -0.523438 4.328125 -0.582031 4.390625 -0.65625 L 4.515625 -0.5625 C 4.460938 -0.363281 4.375 -0.203125 4.25 -0.078125 C 4.125 0.046875 3.984375 0.109375 3.828125 0.109375 C 3.660156 0.109375 3.515625 0.0546875 3.390625 -0.046875 C 3.265625 -0.148438 3.148438 -0.3125 3.046875 -0.53125 Z M 3.046875 -0.53125 "/></g></g></g><g fill="#000000" fill-opacity="1"><g transform="translate(176.600645, 262.775869)"><g><path d="M 3.03125 -2.3125 C 3.03125 -2.65625 2.90625 -2.957031 2.65625 -3.21875 C 2.414062 -3.476562 2.140625 -3.609375 1.828125 -3.609375 C 1.585938 -3.609375 1.390625 -3.53125 1.234375 -3.375 C 1.085938 -3.226562 1.015625 -3.039062 1.015625 -2.8125 C 1.015625 -2.46875 1.132812 -2.160156 1.375 -1.890625 C 1.625 -1.628906 1.90625 -1.5 2.21875 -1.5 C 2.457031 -1.5 2.648438 -1.570312 2.796875 -1.71875 C 2.953125 -1.875 3.03125 -2.070312 3.03125 -2.3125 Z M 1.15625 -1.296875 C 0.914062 -1.429688 0.734375 -1.601562 0.609375 -1.8125 C 0.484375 -2.019531 0.421875 -2.257812 0.421875 -2.53125 C 0.421875 -2.96875 0.578125 -3.335938 0.890625 -3.640625 C 1.203125 -3.941406 1.585938 -4.09375 2.046875 -4.09375 C 2.265625 -4.09375 2.460938 -4.054688 2.640625 -3.984375 C 2.816406 -3.921875 2.972656 -3.820312 3.109375 -3.6875 L 3.21875 -4.109375 L 4 -4.109375 L 4 -3.953125 C 3.84375 -3.921875 3.71875 -3.863281 3.625 -3.78125 C 3.53125 -3.695312 3.453125 -3.566406 3.390625 -3.390625 C 3.460938 -3.234375 3.519531 -3.082031 3.5625 -2.9375 C 3.601562 -2.800781 3.625 -2.660156 3.625 -2.515625 C 3.625 -2.097656 3.476562 -1.75 3.1875 -1.46875 C 2.894531 -1.195312 2.523438 -1.0625 2.078125 -1.0625 C 1.960938 -1.0625 1.84375 -1.070312 1.71875 -1.09375 C 1.601562 -1.113281 1.484375 -1.148438 1.359375 -1.203125 C 1.347656 -1.179688 1.335938 -1.160156 1.328125 -1.140625 C 1.328125 -1.117188 1.328125 -1.097656 1.328125 -1.078125 C 1.328125 -0.960938 1.570312 -0.859375 2.0625 -0.765625 C 2.195312 -0.734375 2.300781 -0.710938 2.375 -0.703125 C 3.207031 -0.535156 3.734375 -0.375 3.953125 -0.21875 C 4.179688 -0.0703125 4.296875 0.140625 4.296875 0.421875 C 4.296875 0.796875 4.109375 1.101562 3.734375 1.34375 C 3.367188 1.582031 2.878906 1.703125 2.265625 1.703125 C 1.742188 1.703125 1.3125 1.570312 0.96875 1.3125 C 0.625 1.0625 0.421875 0.71875 0.359375 0.28125 L 0.984375 -0.234375 L 1.15625 -0.1875 C 1.125 -0.125 1.101562 -0.0625 1.09375 0 C 1.082031 0.0703125 1.078125 0.15625 1.078125 0.25 C 1.078125 0.5625 1.1875 0.800781 1.40625 0.96875 C 1.632812 1.132812 1.960938 1.21875 2.390625 1.21875 C 2.734375 1.21875 3.019531 1.15625 3.25 1.03125 C 3.476562 0.90625 3.59375 0.757812 3.59375 0.59375 C 3.59375 0.34375 3.207031 0.132812 2.4375 -0.03125 C 1.769531 -0.175781 1.21875 -0.328125 0.78125 -0.484375 Z M 1.15625 -1.296875 "/></g></g></g><g fill="#000000" fill-opacity="1"><g transform="translate(181.158792, 262.775869)"><g><path d="M 3.578125 -2.625 C 3.578125 -2.945312 3.476562 -3.191406 3.28125 -3.359375 C 3.09375 -3.535156 2.8125 -3.625 2.4375 -3.625 C 2.269531 -3.625 2.101562 -3.601562 1.9375 -3.5625 C 1.769531 -3.519531 1.59375 -3.453125 1.40625 -3.359375 L 1.40625 -0.734375 C 1.40625 -0.535156 1.429688 -0.398438 1.484375 -0.328125 C 1.546875 -0.253906 1.65625 -0.207031 1.8125 -0.1875 L 1.8125 0 L 0.359375 0 L 0.359375 -0.1875 C 0.484375 -0.226562 0.566406 -0.285156 0.609375 -0.359375 C 0.648438 -0.429688 0.671875 -0.554688 0.671875 -0.734375 L 0.671875 -2.8125 C 0.671875 -2.988281 0.644531 -3.101562 0.59375 -3.15625 C 0.550781 -3.21875 0.460938 -3.25 0.328125 -3.25 L 0.328125 -3.4375 L 1.21875 -4.078125 L 1.40625 -4.015625 L 1.40625 -3.640625 C 1.632812 -3.796875 1.851562 -3.910156 2.0625 -3.984375 C 2.28125 -4.066406 2.492188 -4.109375 2.703125 -4.109375 C 3.140625 -4.109375 3.515625 -3.957031 3.828125 -3.65625 C 4.148438 -3.363281 4.3125 -3.015625 4.3125 -2.609375 L 4.3125 -0.734375 C 4.3125 -0.554688 4.332031 -0.429688 4.375 -0.359375 C 4.425781 -0.285156 4.515625 -0.226562 4.640625 -0.1875 L 4.640625 0 L 3.25 0 L 3.25 -0.1875 C 3.375 -0.226562 3.457031 -0.285156 3.5 -0.359375 C 3.550781 -0.429688 3.578125 -0.554688 3.578125 -0.734375 Z M 3.578125 -2.625 "/></g></g></g><g fill="#000000" fill-opacity="1"><g transform="translate(186.492975, 262.775869)"><g><path d="M 3.90625 -1.640625 C 3.90625 -2.140625 3.722656 -2.578125 3.359375 -2.953125 C 3.003906 -3.335938 2.601562 -3.53125 2.15625 -3.53125 C 1.800781 -3.53125 1.515625 -3.421875 1.296875 -3.203125 C 1.085938 -2.984375 0.984375 -2.703125 0.984375 -2.359375 C 0.984375 -1.867188 1.160156 -1.429688 1.515625 -1.046875 C 1.867188 -0.660156 2.273438 -0.46875 2.734375 -0.46875 C 3.078125 -0.46875 3.359375 -0.578125 3.578125 -0.796875 C 3.796875 -1.015625 3.90625 -1.296875 3.90625 -1.640625 Z M 2.40625 -4.109375 C 3 -4.109375 3.503906 -3.898438 3.921875 -3.484375 C 4.335938 -3.066406 4.546875 -2.570312 4.546875 -2 C 4.546875 -1.40625 4.34375 -0.90625 3.9375 -0.5 C 3.539062 -0.09375 3.050781 0.109375 2.46875 0.109375 C 1.875 0.109375 1.367188 -0.09375 0.953125 -0.5 C 0.546875 -0.90625 0.34375 -1.40625 0.34375 -2 C 0.34375 -2.570312 0.546875 -3.066406 0.953125 -3.484375 C 1.359375 -3.898438 1.84375 -4.109375 2.40625 -4.109375 Z M 2.40625 -4.109375 "/></g></g></g><g fill="#000000" fill-opacity="1"><g transform="translate(191.757028, 262.775869)"><g><path d="M 1.390625 -0.734375 C 1.390625 -0.546875 1.414062 -0.414062 1.46875 -0.34375 C 1.53125 -0.269531 1.628906 -0.21875 1.765625 -0.1875 L 1.765625 0 L 0.3125 0 L 0.3125 -0.1875 C 0.445312 -0.21875 0.539062 -0.265625 0.59375 -0.328125 C 0.644531 -0.398438 0.671875 -0.535156 0.671875 -0.734375 L 0.671875 -5.609375 C 0.671875 -5.785156 0.644531 -5.898438 0.59375 -5.953125 C 0.539062 -6.015625 0.445312 -6.046875 0.3125 -6.046875 L 0.3125 -6.21875 L 1.21875 -6.875 L 1.390625 -6.875 Z M 1.390625 -0.734375 "/></g></g></g><g fill="#000000" fill-opacity="1"><g transform="translate(194.234834, 262.775869)"><g><path d="M 1.40625 -0.734375 C 1.40625 -0.535156 1.429688 -0.398438 1.484375 -0.328125 C 1.535156 -0.265625 1.628906 -0.21875 1.765625 -0.1875 L 1.765625 0 L 0.359375 0 L 0.359375 -0.1875 C 0.484375 -0.226562 0.566406 -0.285156 0.609375 -0.359375 C 0.648438 -0.429688 0.671875 -0.554688 0.671875 -0.734375 L 0.671875 -2.8125 C 0.671875 -2.988281 0.644531 -3.101562 0.59375 -3.15625 C 0.550781 -3.21875 0.460938 -3.25 0.328125 -3.25 L 0.328125 -3.4375 L 1.21875 -4.078125 L 1.40625 -4.015625 Z M 0.65625 -5.40625 L 0.65625 -6.1875 L 1.3125 -6.4375 L 1.3125 -5.671875 Z M 0.65625 -5.40625 "/></g></g></g><g fill="#000000" fill-opacity="1"><g transform="translate(196.68459, 262.775869)"><g><path d="M 2.9375 -0.921875 C 2.882812 -1.109375 2.835938 -1.296875 2.796875 -1.484375 C 2.753906 -1.679688 2.71875 -1.867188 2.6875 -2.046875 C 2.507812 -1.984375 2.273438 -1.898438 1.984375 -1.796875 C 1.304688 -1.554688 0.96875 -1.304688 0.96875 -1.046875 C 0.96875 -0.878906 1.023438 -0.742188 1.140625 -0.640625 C 1.265625 -0.546875 1.429688 -0.5 1.640625 -0.5 C 1.847656 -0.5 2.0625 -0.535156 2.28125 -0.609375 C 2.507812 -0.679688 2.726562 -0.785156 2.9375 -0.921875 Z M 3.046875 -0.53125 C 2.804688 -0.320312 2.550781 -0.160156 2.28125 -0.046875 C 2.007812 0.0546875 1.742188 0.109375 1.484375 0.109375 C 1.117188 0.109375 0.832031 0.015625 0.625 -0.171875 C 0.414062 -0.359375 0.3125 -0.613281 0.3125 -0.9375 C 0.3125 -1.476562 0.847656 -1.910156 1.921875 -2.234375 C 2.222656 -2.328125 2.457031 -2.398438 2.625 -2.453125 C 2.550781 -2.910156 2.460938 -3.21875 2.359375 -3.375 C 2.265625 -3.539062 2.128906 -3.625 1.953125 -3.625 C 1.734375 -3.625 1.539062 -3.550781 1.375 -3.40625 C 1.21875 -3.257812 1.140625 -3.09375 1.140625 -2.90625 C 1.140625 -2.863281 1.144531 -2.820312 1.15625 -2.78125 C 1.164062 -2.738281 1.179688 -2.679688 1.203125 -2.609375 L 1.046875 -2.515625 L 0.515625 -3.15625 C 0.796875 -3.476562 1.0625 -3.71875 1.3125 -3.875 C 1.570312 -4.03125 1.835938 -4.109375 2.109375 -4.109375 C 2.734375 -4.109375 3.164062 -3.453125 3.40625 -2.140625 L 3.40625 -2.09375 L 3.421875 -2.046875 C 3.617188 -0.972656 3.828125 -0.4375 4.046875 -0.4375 C 4.109375 -0.4375 4.164062 -0.453125 4.21875 -0.484375 C 4.269531 -0.523438 4.328125 -0.582031 4.390625 -0.65625 L 4.515625 -0.5625 C 4.460938 -0.363281 4.375 -0.203125 4.25 -0.078125 C 4.125 0.046875 3.984375 0.109375 3.828125 0.109375 C 3.660156 0.109375 3.515625 0.0546875 3.390625 -0.046875 C 3.265625 -0.148438 3.148438 -0.3125 3.046875 -0.53125 Z M 3.046875 -0.53125 "/></g></g></g><g fill="#000000" fill-opacity="1"><g transform="translate(201.425053, 262.775869)"><g/></g></g><g fill="#000000" fill-opacity="1"><g transform="translate(204.295551, 262.775869)"><g><path d="M 6.96875 -1.71875 C 6.625 -1.113281 6.179688 -0.65625 5.640625 -0.34375 C 5.109375 -0.0390625 4.488281 0.109375 3.78125 0.109375 C 3.40625 0.109375 3.039062 0.0546875 2.6875 -0.046875 C 2.34375 -0.160156 2.03125 -0.328125 1.75 -0.546875 C 1.300781 -0.867188 0.960938 -1.273438 0.734375 -1.765625 C 0.503906 -2.265625 0.390625 -2.820312 0.390625 -3.4375 C 0.390625 -4.457031 0.703125 -5.300781 1.328125 -5.96875 C 1.960938 -6.644531 2.753906 -6.984375 3.703125 -6.984375 C 4.109375 -6.984375 4.515625 -6.90625 4.921875 -6.75 C 5.328125 -6.601562 5.53125 -6.53125 5.53125 -6.53125 C 5.5625 -6.53125 5.59375 -6.535156 5.625 -6.546875 C 5.65625 -6.554688 5.695312 -6.582031 5.75 -6.625 L 5.859375 -6.59375 L 6.171875 -5.28125 L 5.984375 -5.15625 C 5.679688 -5.582031 5.34375 -5.898438 4.96875 -6.109375 C 4.601562 -6.316406 4.191406 -6.421875 3.734375 -6.421875 C 2.972656 -6.421875 2.359375 -6.164062 1.890625 -5.65625 C 1.429688 -5.15625 1.203125 -4.488281 1.203125 -3.65625 C 1.203125 -2.769531 1.472656 -2.035156 2.015625 -1.453125 C 2.554688 -0.867188 3.238281 -0.578125 4.0625 -0.578125 C 4.601562 -0.578125 5.097656 -0.707031 5.546875 -0.96875 C 5.992188 -1.238281 6.378906 -1.617188 6.703125 -2.109375 Z M 6.96875 -1.71875 "/></g></g></g><g fill="#000000" fill-opacity="1"><g transform="translate(211.667995, 262.775869)"><g><path d="M 1.40625 -0.734375 C 1.40625 -0.535156 1.429688 -0.398438 1.484375 -0.328125 C 1.535156 -0.265625 1.628906 -0.21875 1.765625 -0.1875 L 1.765625 0 L 0.359375 0 L 0.359375 -0.1875 C 0.484375 -0.226562 0.566406 -0.285156 0.609375 -0.359375 C 0.648438 -0.429688 0.671875 -0.554688 0.671875 -0.734375 L 0.671875 -2.8125 C 0.671875 -2.988281 0.644531 -3.101562 0.59375 -3.15625 C 0.550781 -3.21875 0.460938 -3.25 0.328125 -3.25 L 0.328125 -3.4375 L 1.21875 -4.078125 L 1.40625 -4.015625 Z M 0.65625 -5.40625 L 0.65625 -6.1875 L 1.3125 -6.4375 L 1.3125 -5.671875 Z M 0.65625 -5.40625 "/></g></g></g><g fill="#000000" fill-opacity="1"><g transform="translate(214.117751, 262.775869)"><g><path d="M 0.671875 -3.546875 L 0.25 -3.546875 L 0.265625 -3.9375 C 0.535156 -3.945312 0.726562 -4.019531 0.84375 -4.15625 C 0.96875 -4.289062 1.046875 -4.515625 1.078125 -4.828125 L 1.40625 -4.828125 L 1.40625 -4 L 2.28125 -4 L 2.28125 -3.546875 L 1.40625 -3.546875 L 1.40625 -1.03125 C 1.40625 -0.78125 1.429688 -0.609375 1.484375 -0.515625 C 1.546875 -0.429688 1.640625 -0.390625 1.765625 -0.390625 C 1.816406 -0.390625 1.878906 -0.40625 1.953125 -0.4375 C 2.023438 -0.46875 2.101562 -0.515625 2.1875 -0.578125 L 2.359375 -0.359375 C 2.210938 -0.203125 2.066406 -0.0820312 1.921875 0 C 1.773438 0.0703125 1.625 0.109375 1.46875 0.109375 C 1.269531 0.109375 1.085938 0.0234375 0.921875 -0.140625 C 0.753906 -0.304688 0.671875 -0.503906 0.671875 -0.734375 Z M 0.671875 -3.546875 "/></g></g></g><g fill="#000000" fill-opacity="1"><g transform="translate(216.950851, 262.775869)"><g><path d="M -0.0625 1.484375 C 0.25 1.367188 0.5625 1.148438 0.875 0.828125 C 1.1875 0.515625 1.5 0.0859375 1.8125 -0.453125 L 0.03125 -3.8125 L 0.03125 -4 L 1.21875 -4 L 1.21875 -3.8125 C 1.132812 -3.800781 1.078125 -3.773438 1.046875 -3.734375 C 1.015625 -3.703125 1 -3.65625 1 -3.59375 C 1 -3.5625 1.003906 -3.523438 1.015625 -3.484375 C 1.023438 -3.453125 1.039062 -3.414062 1.0625 -3.375 L 2.234375 -1.1875 L 2.71875 -2.15625 L 2.859375 -2.421875 C 3.191406 -3.097656 3.359375 -3.492188 3.359375 -3.609375 C 3.359375 -3.660156 3.34375 -3.703125 3.3125 -3.734375 C 3.289062 -3.765625 3.253906 -3.789062 3.203125 -3.8125 L 3.203125 -4 L 4.125 -4 L 4.125 -3.765625 L 2.953125 -1.53125 C 2.554688 -0.769531 2.164062 -0.0976562 1.78125 0.484375 C 1.40625 1.078125 1.109375 1.484375 0.890625 1.703125 L -0.0625 1.703125 Z M -0.0625 1.484375 "/></g></g></g><g fill="#000000" fill-opacity="1"><g transform="translate(221.471598, 262.775869)"><g><path d="M 0.390625 0.9375 L 1.078125 -0.0625 L 0.703125 -0.390625 L 1.234375 -1 L 1.890625 -0.40625 L 0.609375 1.03125 Z M 0.390625 0.9375 "/></g></g></g><g fill="#000000" fill-opacity="1"><g transform="translate(224.342097, 262.775869)"><g/></g></g><g fill="#000000" fill-opacity="1"><g transform="translate(227.212595, 262.775869)"><g><path d="M 1.671875 -0.59375 L 2.4375 -0.59375 C 3.0625 -0.59375 3.515625 -0.695312 3.796875 -0.90625 C 4.078125 -1.113281 4.21875 -1.4375 4.21875 -1.875 C 4.21875 -2.375 4.0625 -2.757812 3.75 -3.03125 C 3.4375 -3.3125 2.992188 -3.453125 2.421875 -3.453125 L 1.921875 -3.453125 L 1.921875 -4.0625 L 2.296875 -4.0625 C 2.765625 -4.0625 3.117188 -4.15625 3.359375 -4.34375 C 3.609375 -4.539062 3.734375 -4.820312 3.734375 -5.1875 C 3.734375 -5.550781 3.613281 -5.820312 3.375 -6 C 3.144531 -6.175781 2.789062 -6.265625 2.3125 -6.265625 L 1.671875 -6.265625 Z M 0.515625 0 L 0.515625 -0.203125 C 0.640625 -0.242188 0.722656 -0.300781 0.765625 -0.375 C 0.816406 -0.445312 0.84375 -0.570312 0.84375 -0.75 L 0.84375 -6.109375 C 0.84375 -6.296875 0.816406 -6.425781 0.765625 -6.5 C 0.722656 -6.570312 0.640625 -6.628906 0.515625 -6.671875 L 0.515625 -6.875 L 2.390625 -6.875 C 3.054688 -6.875 3.582031 -6.734375 3.96875 -6.453125 C 4.351562 -6.171875 4.546875 -5.785156 4.546875 -5.296875 C 4.546875 -4.941406 4.441406 -4.632812 4.234375 -4.375 C 4.035156 -4.113281 3.75 -3.925781 3.375 -3.8125 C 3.90625 -3.65625 4.3125 -3.414062 4.59375 -3.09375 C 4.882812 -2.769531 5.03125 -2.382812 5.03125 -1.9375 C 5.03125 -1.34375 4.835938 -0.867188 4.453125 -0.515625 C 4.066406 -0.171875 3.539062 0 2.875 0 Z M 0.515625 0 "/></g></g></g><g fill="#000000" fill-opacity="1"><g transform="translate(232.967519, 262.775869)"><g><path d="M 2.9375 -0.921875 C 2.882812 -1.109375 2.835938 -1.296875 2.796875 -1.484375 C 2.753906 -1.679688 2.71875 -1.867188 2.6875 -2.046875 C 2.507812 -1.984375 2.273438 -1.898438 1.984375 -1.796875 C 1.304688 -1.554688 0.96875 -1.304688 0.96875 -1.046875 C 0.96875 -0.878906 1.023438 -0.742188 1.140625 -0.640625 C 1.265625 -0.546875 1.429688 -0.5 1.640625 -0.5 C 1.847656 -0.5 2.0625 -0.535156 2.28125 -0.609375 C 2.507812 -0.679688 2.726562 -0.785156 2.9375 -0.921875 Z M 3.046875 -0.53125 C 2.804688 -0.320312 2.550781 -0.160156 2.28125 -0.046875 C 2.007812 0.0546875 1.742188 0.109375 1.484375 0.109375 C 1.117188 0.109375 0.832031 0.015625 0.625 -0.171875 C 0.414062 -0.359375 0.3125 -0.613281 0.3125 -0.9375 C 0.3125 -1.476562 0.847656 -1.910156 1.921875 -2.234375 C 2.222656 -2.328125 2.457031 -2.398438 2.625 -2.453125 C 2.550781 -2.910156 2.460938 -3.21875 2.359375 -3.375 C 2.265625 -3.539062 2.128906 -3.625 1.953125 -3.625 C 1.734375 -3.625 1.539062 -3.550781 1.375 -3.40625 C 1.21875 -3.257812 1.140625 -3.09375 1.140625 -2.90625 C 1.140625 -2.863281 1.144531 -2.820312 1.15625 -2.78125 C 1.164062 -2.738281 1.179688 -2.679688 1.203125 -2.609375 L 1.046875 -2.515625 L 0.515625 -3.15625 C 0.796875 -3.476562 1.0625 -3.71875 1.3125 -3.875 C 1.570312 -4.03125 1.835938 -4.109375 2.109375 -4.109375 C 2.734375 -4.109375 3.164062 -3.453125 3.40625 -2.140625 L 3.40625 -2.09375 L 3.421875 -2.046875 C 3.617188 -0.972656 3.828125 -0.4375 4.046875 -0.4375 C 4.109375 -0.4375 4.164062 -0.453125 4.21875 -0.484375 C 4.269531 -0.523438 4.328125 -0.582031 4.390625 -0.65625 L 4.515625 -0.5625 C 4.460938 -0.363281 4.375 -0.203125 4.25 -0.078125 C 4.125 0.046875 3.984375 0.109375 3.828125 0.109375 C 3.660156 0.109375 3.515625 0.0546875 3.390625 -0.046875 C 3.265625 -0.148438 3.148438 -0.3125 3.046875 -0.53125 Z M 3.046875 -0.53125 "/></g></g></g><g fill="#000000" fill-opacity="1"><g transform="translate(237.707982, 262.775869)"><g><path d="M 1.40625 -3.234375 C 1.65625 -3.535156 1.882812 -3.753906 2.09375 -3.890625 C 2.3125 -4.035156 2.523438 -4.109375 2.734375 -4.109375 C 2.773438 -4.109375 2.8125 -4.101562 2.84375 -4.09375 C 2.882812 -4.09375 2.921875 -4.082031 2.953125 -4.0625 L 3.203125 -3.109375 L 3.03125 -3.046875 C 2.957031 -3.160156 2.867188 -3.242188 2.765625 -3.296875 C 2.660156 -3.359375 2.539062 -3.390625 2.40625 -3.390625 C 2.226562 -3.390625 2.050781 -3.335938 1.875 -3.234375 C 1.707031 -3.140625 1.550781 -2.992188 1.40625 -2.796875 L 1.40625 -0.734375 C 1.40625 -0.546875 1.429688 -0.414062 1.484375 -0.34375 C 1.535156 -0.269531 1.628906 -0.21875 1.765625 -0.1875 L 1.765625 0 L 0.375 0 L 0.375 -0.1875 C 0.488281 -0.226562 0.566406 -0.285156 0.609375 -0.359375 C 0.648438 -0.429688 0.671875 -0.554688 0.671875 -0.734375 L 0.671875 -2.8125 C 0.671875 -2.988281 0.644531 -3.101562 0.59375 -3.15625 C 0.550781 -3.21875 0.460938 -3.25 0.328125 -3.25 L 0.328125 -3.4375 L 1.234375 -4.078125 L 1.40625 -4.015625 Z M 1.40625 -3.234375 "/></g></g></g><g fill="#000000" fill-opacity="1"><g transform="translate(241.223619, 262.775869)"><g><path d="M 2.9375 -0.921875 C 2.882812 -1.109375 2.835938 -1.296875 2.796875 -1.484375 C 2.753906 -1.679688 2.71875 -1.867188 2.6875 -2.046875 C 2.507812 -1.984375 2.273438 -1.898438 1.984375 -1.796875 C 1.304688 -1.554688 0.96875 -1.304688 0.96875 -1.046875 C 0.96875 -0.878906 1.023438 -0.742188 1.140625 -0.640625 C 1.265625 -0.546875 1.429688 -0.5 1.640625 -0.5 C 1.847656 -0.5 2.0625 -0.535156 2.28125 -0.609375 C 2.507812 -0.679688 2.726562 -0.785156 2.9375 -0.921875 Z M 3.046875 -0.53125 C 2.804688 -0.320312 2.550781 -0.160156 2.28125 -0.046875 C 2.007812 0.0546875 1.742188 0.109375 1.484375 0.109375 C 1.117188 0.109375 0.832031 0.015625 0.625 -0.171875 C 0.414062 -0.359375 0.3125 -0.613281 0.3125 -0.9375 C 0.3125 -1.476562 0.847656 -1.910156 1.921875 -2.234375 C 2.222656 -2.328125 2.457031 -2.398438 2.625 -2.453125 C 2.550781 -2.910156 2.460938 -3.21875 2.359375 -3.375 C 2.265625 -3.539062 2.128906 -3.625 1.953125 -3.625 C 1.734375 -3.625 1.539062 -3.550781 1.375 -3.40625 C 1.21875 -3.257812 1.140625 -3.09375 1.140625 -2.90625 C 1.140625 -2.863281 1.144531 -2.820312 1.15625 -2.78125 C 1.164062 -2.738281 1.179688 -2.679688 1.203125 -2.609375 L 1.046875 -2.515625 L 0.515625 -3.15625 C 0.796875 -3.476562 1.0625 -3.71875 1.3125 -3.875 C 1.570312 -4.03125 1.835938 -4.109375 2.109375 -4.109375 C 2.734375 -4.109375 3.164062 -3.453125 3.40625 -2.140625 L 3.40625 -2.09375 L 3.421875 -2.046875 C 3.617188 -0.972656 3.828125 -0.4375 4.046875 -0.4375 C 4.109375 -0.4375 4.164062 -0.453125 4.21875 -0.484375 C 4.269531 -0.523438 4.328125 -0.582031 4.390625 -0.65625 L 4.515625 -0.5625 C 4.460938 -0.363281 4.375 -0.203125 4.25 -0.078125 C 4.125 0.046875 3.984375 0.109375 3.828125 0.109375 C 3.660156 0.109375 3.515625 0.0546875 3.390625 -0.046875 C 3.265625 -0.148438 3.148438 -0.3125 3.046875 -0.53125 Z M 3.046875 -0.53125 "/></g></g></g><g fill="#000000" fill-opacity="1"><g transform="translate(245.964081, 262.775869)"><g><path d="M 0.4375 -0.140625 L 0.28125 -0.875 L 0.5 -0.953125 C 0.664062 -0.753906 0.851562 -0.601562 1.0625 -0.5 C 1.269531 -0.40625 1.488281 -0.359375 1.71875 -0.359375 C 1.914062 -0.359375 2.070312 -0.398438 2.1875 -0.484375 C 2.300781 -0.578125 2.359375 -0.703125 2.359375 -0.859375 C 2.359375 -1.097656 2.140625 -1.351562 1.703125 -1.625 L 1.65625 -1.640625 C 1.601562 -1.679688 1.523438 -1.734375 1.421875 -1.796875 C 0.722656 -2.222656 0.375 -2.625 0.375 -3 C 0.375 -3.34375 0.492188 -3.613281 0.734375 -3.8125 C 0.972656 -4.007812 1.304688 -4.109375 1.734375 -4.109375 C 1.929688 -4.109375 2.125 -4.085938 2.3125 -4.046875 C 2.507812 -4.015625 2.679688 -3.972656 2.828125 -3.921875 L 2.828125 -3.078125 L 2.578125 -3.078125 C 2.492188 -3.265625 2.367188 -3.40625 2.203125 -3.5 C 2.046875 -3.601562 1.851562 -3.65625 1.625 -3.65625 C 1.425781 -3.65625 1.269531 -3.613281 1.15625 -3.53125 C 1.050781 -3.457031 1 -3.347656 1 -3.203125 C 1 -3.003906 1.210938 -2.773438 1.640625 -2.515625 C 1.722656 -2.472656 1.789062 -2.4375 1.84375 -2.40625 C 2.34375 -2.101562 2.660156 -1.863281 2.796875 -1.6875 C 2.929688 -1.519531 3 -1.316406 3 -1.078125 C 3 -0.710938 2.875 -0.421875 2.625 -0.203125 C 2.375 0.00390625 2.039062 0.109375 1.625 0.109375 C 1.4375 0.109375 1.238281 0.0859375 1.03125 0.046875 C 0.832031 0.00390625 0.632812 -0.0546875 0.4375 -0.140625 Z M 0.4375 -0.140625 "/></g></g></g><g fill="#000000" fill-opacity="1"><g transform="translate(249.680745, 262.775869)"><g><path d="M 2.9375 -0.921875 C 2.882812 -1.109375 2.835938 -1.296875 2.796875 -1.484375 C 2.753906 -1.679688 2.71875 -1.867188 2.6875 -2.046875 C 2.507812 -1.984375 2.273438 -1.898438 1.984375 -1.796875 C 1.304688 -1.554688 0.96875 -1.304688 0.96875 -1.046875 C 0.96875 -0.878906 1.023438 -0.742188 1.140625 -0.640625 C 1.265625 -0.546875 1.429688 -0.5 1.640625 -0.5 C 1.847656 -0.5 2.0625 -0.535156 2.28125 -0.609375 C 2.507812 -0.679688 2.726562 -0.785156 2.9375 -0.921875 Z M 3.046875 -0.53125 C 2.804688 -0.320312 2.550781 -0.160156 2.28125 -0.046875 C 2.007812 0.0546875 1.742188 0.109375 1.484375 0.109375 C 1.117188 0.109375 0.832031 0.015625 0.625 -0.171875 C 0.414062 -0.359375 0.3125 -0.613281 0.3125 -0.9375 C 0.3125 -1.476562 0.847656 -1.910156 1.921875 -2.234375 C 2.222656 -2.328125 2.457031 -2.398438 2.625 -2.453125 C 2.550781 -2.910156 2.460938 -3.21875 2.359375 -3.375 C 2.265625 -3.539062 2.128906 -3.625 1.953125 -3.625 C 1.734375 -3.625 1.539062 -3.550781 1.375 -3.40625 C 1.21875 -3.257812 1.140625 -3.09375 1.140625 -2.90625 C 1.140625 -2.863281 1.144531 -2.820312 1.15625 -2.78125 C 1.164062 -2.738281 1.179688 -2.679688 1.203125 -2.609375 L 1.046875 -2.515625 L 0.515625 -3.15625 C 0.796875 -3.476562 1.0625 -3.71875 1.3125 -3.875 C 1.570312 -4.03125 1.835938 -4.109375 2.109375 -4.109375 C 2.734375 -4.109375 3.164062 -3.453125 3.40625 -2.140625 L 3.40625 -2.09375 L 3.421875 -2.046875 C 3.617188 -0.972656 3.828125 -0.4375 4.046875 -0.4375 C 4.109375 -0.4375 4.164062 -0.453125 4.21875 -0.484375 C 4.269531 -0.523438 4.328125 -0.582031 4.390625 -0.65625 L 4.515625 -0.5625 C 4.460938 -0.363281 4.375 -0.203125 4.25 -0.078125 C 4.125 0.046875 3.984375 0.109375 3.828125 0.109375 C 3.660156 0.109375 3.515625 0.0546875 3.390625 -0.046875 C 3.265625 -0.148438 3.148438 -0.3125 3.046875 -0.53125 Z M 3.046875 -0.53125 "/></g></g></g><g fill="#000000" fill-opacity="1"><g transform="translate(254.421207, 262.775869)"><g><path d="M 0.671875 -3.546875 L 0.25 -3.546875 L 0.265625 -3.9375 C 0.535156 -3.945312 0.726562 -4.019531 0.84375 -4.15625 C 0.96875 -4.289062 1.046875 -4.515625 1.078125 -4.828125 L 1.40625 -4.828125 L 1.40625 -4 L 2.28125 -4 L 2.28125 -3.546875 L 1.40625 -3.546875 L 1.40625 -1.03125 C 1.40625 -0.78125 1.429688 -0.609375 1.484375 -0.515625 C 1.546875 -0.429688 1.640625 -0.390625 1.765625 -0.390625 C 1.816406 -0.390625 1.878906 -0.40625 1.953125 -0.4375 C 2.023438 -0.46875 2.101562 -0.515625 2.1875 -0.578125 L 2.359375 -0.359375 C 2.210938 -0.203125 2.066406 -0.0820312 1.921875 0 C 1.773438 0.0703125 1.625 0.109375 1.46875 0.109375 C 1.269531 0.109375 1.085938 0.0234375 0.921875 -0.140625 C 0.753906 -0.304688 0.671875 -0.503906 0.671875 -0.734375 Z M 0.671875 -3.546875 "/></g></g></g><g fill="#000000" fill-opacity="1"><g transform="translate(257.254307, 262.775869)"><g><path d="M 0.390625 0.9375 L 1.078125 -0.0625 L 0.703125 -0.390625 L 1.234375 -1 L 1.890625 -0.40625 L 0.609375 1.03125 Z M 0.390625 0.9375 "/></g></g></g><g fill="#000000" fill-opacity="1"><g transform="translate(167.241439, 272.525869)"><g><path d="M 1.640625 -4.1875 L 3.703125 -6.234375 C 3.753906 -6.285156 3.789062 -6.332031 3.8125 -6.375 C 3.84375 -6.414062 3.859375 -6.457031 3.859375 -6.5 C 3.859375 -6.53125 3.84375 -6.5625 3.8125 -6.59375 C 3.789062 -6.625 3.757812 -6.648438 3.71875 -6.671875 L 3.71875 -6.875 L 5.1875 -6.875 L 5.171875 -6.625 C 5.054688 -6.601562 4.910156 -6.507812 4.734375 -6.34375 C 4.710938 -6.320312 4.695312 -6.304688 4.6875 -6.296875 L 2.234375 -4 L 4.859375 -0.71875 C 5.003906 -0.53125 5.117188 -0.398438 5.203125 -0.328125 C 5.296875 -0.265625 5.382812 -0.222656 5.46875 -0.203125 L 5.46875 0 L 3.890625 0 L 3.890625 -0.203125 C 3.941406 -0.203125 3.976562 -0.210938 4 -0.234375 C 4.03125 -0.265625 4.046875 -0.304688 4.046875 -0.359375 C 4.046875 -0.378906 4.039062 -0.40625 4.03125 -0.4375 C 4.019531 -0.46875 4.003906 -0.5 3.984375 -0.53125 L 1.640625 -3.5625 L 1.640625 -0.75 C 1.640625 -0.570312 1.660156 -0.445312 1.703125 -0.375 C 1.753906 -0.300781 1.84375 -0.242188 1.96875 -0.203125 L 1.96875 0 L 0.53125 0 L 0.53125 -0.203125 C 0.65625 -0.242188 0.738281 -0.300781 0.78125 -0.375 C 0.832031 -0.445312 0.859375 -0.570312 0.859375 -0.75 L 0.859375 -6.109375 C 0.859375 -6.296875 0.832031 -6.425781 0.78125 -6.5 C 0.738281 -6.570312 0.65625 -6.628906 0.53125 -6.671875 L 0.53125 -6.875 L 1.96875 -6.875 L 1.96875 -6.671875 C 1.84375 -6.628906 1.753906 -6.570312 1.703125 -6.5 C 1.660156 -6.4375 1.640625 -6.304688 1.640625 -6.109375 Z M 1.640625 -4.1875 "/></g></g></g><g fill="#000000" fill-opacity="1"><g transform="translate(172.996363, 272.525869)"><g><path d="M 3.90625 -1.640625 C 3.90625 -2.140625 3.722656 -2.578125 3.359375 -2.953125 C 3.003906 -3.335938 2.601562 -3.53125 2.15625 -3.53125 C 1.800781 -3.53125 1.515625 -3.421875 1.296875 -3.203125 C 1.085938 -2.984375 0.984375 -2.703125 0.984375 -2.359375 C 0.984375 -1.867188 1.160156 -1.429688 1.515625 -1.046875 C 1.867188 -0.660156 2.273438 -0.46875 2.734375 -0.46875 C 3.078125 -0.46875 3.359375 -0.578125 3.578125 -0.796875 C 3.796875 -1.015625 3.90625 -1.296875 3.90625 -1.640625 Z M 2.40625 -4.109375 C 3 -4.109375 3.503906 -3.898438 3.921875 -3.484375 C 4.335938 -3.066406 4.546875 -2.570312 4.546875 -2 C 4.546875 -1.40625 4.34375 -0.90625 3.9375 -0.5 C 3.539062 -0.09375 3.050781 0.109375 2.46875 0.109375 C 1.875 0.109375 1.367188 -0.09375 0.953125 -0.5 C 0.546875 -0.90625 0.34375 -1.40625 0.34375 -2 C 0.34375 -2.570312 0.546875 -3.066406 0.953125 -3.484375 C 1.359375 -3.898438 1.84375 -4.109375 2.40625 -4.109375 Z M 2.40625 -4.109375 "/></g></g></g><g fill="#000000" fill-opacity="1"><g transform="translate(178.260416, 272.525869)"><g><path d="M 1.390625 -0.734375 C 1.390625 -0.546875 1.414062 -0.414062 1.46875 -0.34375 C 1.53125 -0.269531 1.628906 -0.21875 1.765625 -0.1875 L 1.765625 0 L 0.3125 0 L 0.3125 -0.1875 C 0.445312 -0.21875 0.539062 -0.265625 0.59375 -0.328125 C 0.644531 -0.398438 0.671875 -0.535156 0.671875 -0.734375 L 0.671875 -5.609375 C 0.671875 -5.785156 0.644531 -5.898438 0.59375 -5.953125 C 0.539062 -6.015625 0.445312 -6.046875 0.3125 -6.046875 L 0.3125 -6.21875 L 1.21875 -6.875 L 1.390625 -6.875 Z M 1.390625 -0.734375 "/></g></g></g><g fill="#000000" fill-opacity="1"><g transform="translate(180.738222, 272.525869)"><g><path d="M 1.328125 -6.875 L 1.328125 -2.28125 L 2.59375 -3.515625 C 2.625 -3.535156 2.644531 -3.5625 2.65625 -3.59375 C 2.675781 -3.625 2.6875 -3.648438 2.6875 -3.671875 C 2.6875 -3.710938 2.671875 -3.742188 2.640625 -3.765625 C 2.609375 -3.796875 2.570312 -3.8125 2.53125 -3.8125 L 2.53125 -4 L 3.609375 -4 L 3.609375 -3.8125 L 2.203125 -2.515625 L 3.859375 -0.1875 L 3.859375 0 L 2.640625 0 L 2.640625 -0.171875 C 2.710938 -0.210938 2.757812 -0.242188 2.78125 -0.265625 C 2.8125 -0.296875 2.828125 -0.328125 2.828125 -0.359375 C 2.828125 -0.390625 2.816406 -0.425781 2.796875 -0.46875 C 2.773438 -0.507812 2.742188 -0.5625 2.703125 -0.625 L 1.703125 -2.03125 L 1.328125 -1.6875 L 1.328125 -0.734375 C 1.328125 -0.535156 1.351562 -0.398438 1.40625 -0.328125 C 1.46875 -0.253906 1.578125 -0.207031 1.734375 -0.1875 L 1.734375 0 L 0.328125 0 L 0.328125 -0.1875 C 0.441406 -0.226562 0.519531 -0.285156 0.5625 -0.359375 C 0.601562 -0.429688 0.625 -0.554688 0.625 -0.734375 L 0.625 -5.609375 C 0.625 -5.773438 0.597656 -5.890625 0.546875 -5.953125 C 0.503906 -6.015625 0.414062 -6.046875 0.28125 -6.046875 L 0.28125 -6.21875 L 1.1875 -6.875 Z M 1.328125 -6.875 "/></g></g></g><g fill="#000000" fill-opacity="1"><g transform="translate(185.029893, 272.525869)"><g><path d="M 2.9375 -0.921875 C 2.882812 -1.109375 2.835938 -1.296875 2.796875 -1.484375 C 2.753906 -1.679688 2.71875 -1.867188 2.6875 -2.046875 C 2.507812 -1.984375 2.273438 -1.898438 1.984375 -1.796875 C 1.304688 -1.554688 0.96875 -1.304688 0.96875 -1.046875 C 0.96875 -0.878906 1.023438 -0.742188 1.140625 -0.640625 C 1.265625 -0.546875 1.429688 -0.5 1.640625 -0.5 C 1.847656 -0.5 2.0625 -0.535156 2.28125 -0.609375 C 2.507812 -0.679688 2.726562 -0.785156 2.9375 -0.921875 Z M 3.046875 -0.53125 C 2.804688 -0.320312 2.550781 -0.160156 2.28125 -0.046875 C 2.007812 0.0546875 1.742188 0.109375 1.484375 0.109375 C 1.117188 0.109375 0.832031 0.015625 0.625 -0.171875 C 0.414062 -0.359375 0.3125 -0.613281 0.3125 -0.9375 C 0.3125 -1.476562 0.847656 -1.910156 1.921875 -2.234375 C 2.222656 -2.328125 2.457031 -2.398438 2.625 -2.453125 C 2.550781 -2.910156 2.460938 -3.21875 2.359375 -3.375 C 2.265625 -3.539062 2.128906 -3.625 1.953125 -3.625 C 1.734375 -3.625 1.539062 -3.550781 1.375 -3.40625 C 1.21875 -3.257812 1.140625 -3.09375 1.140625 -2.90625 C 1.140625 -2.863281 1.144531 -2.820312 1.15625 -2.78125 C 1.164062 -2.738281 1.179688 -2.679688 1.203125 -2.609375 L 1.046875 -2.515625 L 0.515625 -3.15625 C 0.796875 -3.476562 1.0625 -3.71875 1.3125 -3.875 C 1.570312 -4.03125 1.835938 -4.109375 2.109375 -4.109375 C 2.734375 -4.109375 3.164062 -3.453125 3.40625 -2.140625 L 3.40625 -2.09375 L 3.421875 -2.046875 C 3.617188 -0.972656 3.828125 -0.4375 4.046875 -0.4375 C 4.109375 -0.4375 4.164062 -0.453125 4.21875 -0.484375 C 4.269531 -0.523438 4.328125 -0.582031 4.390625 -0.65625 L 4.515625 -0.5625 C 4.460938 -0.363281 4.375 -0.203125 4.25 -0.078125 C 4.125 0.046875 3.984375 0.109375 3.828125 0.109375 C 3.660156 0.109375 3.515625 0.0546875 3.390625 -0.046875 C 3.265625 -0.148438 3.148438 -0.3125 3.046875 -0.53125 Z M 3.046875 -0.53125 "/></g></g></g><g fill="#000000" fill-opacity="1"><g transform="translate(189.770356, 272.525869)"><g><path d="M 0.671875 -3.546875 L 0.25 -3.546875 L 0.265625 -3.9375 C 0.535156 -3.945312 0.726562 -4.019531 0.84375 -4.15625 C 0.96875 -4.289062 1.046875 -4.515625 1.078125 -4.828125 L 1.40625 -4.828125 L 1.40625 -4 L 2.28125 -4 L 2.28125 -3.546875 L 1.40625 -3.546875 L 1.40625 -1.03125 C 1.40625 -0.78125 1.429688 -0.609375 1.484375 -0.515625 C 1.546875 -0.429688 1.640625 -0.390625 1.765625 -0.390625 C 1.816406 -0.390625 1.878906 -0.40625 1.953125 -0.4375 C 2.023438 -0.46875 2.101562 -0.515625 2.1875 -0.578125 L 2.359375 -0.359375 C 2.210938 -0.203125 2.066406 -0.0820312 1.921875 0 C 1.773438 0.0703125 1.625 0.109375 1.46875 0.109375 C 1.269531 0.109375 1.085938 0.0234375 0.921875 -0.140625 C 0.753906 -0.304688 0.671875 -0.503906 0.671875 -0.734375 Z M 0.671875 -3.546875 "/></g></g></g><g fill="#000000" fill-opacity="1"><g transform="translate(192.603455, 272.525869)"><g><path d="M 2.9375 -0.921875 C 2.882812 -1.109375 2.835938 -1.296875 2.796875 -1.484375 C 2.753906 -1.679688 2.71875 -1.867188 2.6875 -2.046875 C 2.507812 -1.984375 2.273438 -1.898438 1.984375 -1.796875 C 1.304688 -1.554688 0.96875 -1.304688 0.96875 -1.046875 C 0.96875 -0.878906 1.023438 -0.742188 1.140625 -0.640625 C 1.265625 -0.546875 1.429688 -0.5 1.640625 -0.5 C 1.847656 -0.5 2.0625 -0.535156 2.28125 -0.609375 C 2.507812 -0.679688 2.726562 -0.785156 2.9375 -0.921875 Z M 3.046875 -0.53125 C 2.804688 -0.320312 2.550781 -0.160156 2.28125 -0.046875 C 2.007812 0.0546875 1.742188 0.109375 1.484375 0.109375 C 1.117188 0.109375 0.832031 0.015625 0.625 -0.171875 C 0.414062 -0.359375 0.3125 -0.613281 0.3125 -0.9375 C 0.3125 -1.476562 0.847656 -1.910156 1.921875 -2.234375 C 2.222656 -2.328125 2.457031 -2.398438 2.625 -2.453125 C 2.550781 -2.910156 2.460938 -3.21875 2.359375 -3.375 C 2.265625 -3.539062 2.128906 -3.625 1.953125 -3.625 C 1.734375 -3.625 1.539062 -3.550781 1.375 -3.40625 C 1.21875 -3.257812 1.140625 -3.09375 1.140625 -2.90625 C 1.140625 -2.863281 1.144531 -2.820312 1.15625 -2.78125 C 1.164062 -2.738281 1.179688 -2.679688 1.203125 -2.609375 L 1.046875 -2.515625 L 0.515625 -3.15625 C 0.796875 -3.476562 1.0625 -3.71875 1.3125 -3.875 C 1.570312 -4.03125 1.835938 -4.109375 2.109375 -4.109375 C 2.734375 -4.109375 3.164062 -3.453125 3.40625 -2.140625 L 3.40625 -2.09375 L 3.421875 -2.046875 C 3.617188 -0.972656 3.828125 -0.4375 4.046875 -0.4375 C 4.109375 -0.4375 4.164062 -0.453125 4.21875 -0.484375 C 4.269531 -0.523438 4.328125 -0.582031 4.390625 -0.65625 L 4.515625 -0.5625 C 4.460938 -0.363281 4.375 -0.203125 4.25 -0.078125 C 4.125 0.046875 3.984375 0.109375 3.828125 0.109375 C 3.660156 0.109375 3.515625 0.0546875 3.390625 -0.046875 C 3.265625 -0.148438 3.148438 -0.3125 3.046875 -0.53125 Z M 3.046875 -0.53125 "/></g></g></g><g fill="#000000" fill-opacity="1"><g transform="translate(197.343918, 272.525869)"><g><path d="M 0.390625 0.9375 L 1.078125 -0.0625 L 0.703125 -0.390625 L 1.234375 -1 L 1.890625 -0.40625 L 0.609375 1.03125 Z M 0.390625 0.9375 "/></g></g></g><g fill="#000000" fill-opacity="1"><g transform="translate(200.214417, 272.525869)"><g/></g></g><g fill="#000000" fill-opacity="1"><g transform="translate(203.084915, 272.525869)"><g><path d="M 2.984375 0.0625 L 0.15625 -6.203125 C 0.0820312 -6.390625 0.0234375 -6.507812 -0.015625 -6.5625 C -0.0664062 -6.625 -0.125 -6.660156 -0.1875 -6.671875 L -0.1875 -6.875 L 1.296875 -6.875 L 1.296875 -6.671875 C 1.203125 -6.628906 1.132812 -6.585938 1.09375 -6.546875 C 1.0625 -6.503906 1.046875 -6.4375 1.046875 -6.34375 C 1.046875 -6.3125 1.050781 -6.273438 1.0625 -6.234375 C 1.070312 -6.203125 1.082031 -6.171875 1.09375 -6.140625 L 3.203125 -1.328125 L 5.28125 -6.140625 C 5.289062 -6.160156 5.296875 -6.1875 5.296875 -6.21875 C 5.304688 -6.257812 5.3125 -6.300781 5.3125 -6.34375 C 5.3125 -6.425781 5.296875 -6.488281 5.265625 -6.53125 C 5.234375 -6.582031 5.171875 -6.628906 5.078125 -6.671875 L 5.078125 -6.875 L 6.59375 -6.875 L 6.59375 -6.671875 C 6.5 -6.628906 6.429688 -6.585938 6.390625 -6.546875 C 6.359375 -6.503906 6.34375 -6.4375 6.34375 -6.34375 C 6.34375 -6.300781 6.347656 -6.265625 6.359375 -6.234375 C 6.367188 -6.203125 6.378906 -6.171875 6.390625 -6.140625 L 8.515625 -1.328125 L 10.578125 -6.140625 C 10.597656 -6.160156 10.609375 -6.1875 10.609375 -6.21875 C 10.617188 -6.257812 10.625 -6.300781 10.625 -6.34375 C 10.625 -6.425781 10.601562 -6.488281 10.5625 -6.53125 C 10.53125 -6.582031 10.46875 -6.628906 10.375 -6.671875 L 10.375 -6.875 L 11.6875 -6.875 L 11.6875 -6.671875 C 11.539062 -6.597656 11.410156 -6.425781 11.296875 -6.15625 C 11.285156 -6.113281 11.273438 -6.082031 11.265625 -6.0625 L 8.546875 0.0625 L 8.265625 0.0625 L 5.75 -5.5625 L 3.25 0.0625 Z M 2.984375 0.0625 "/></g></g></g><g fill="#000000" fill-opacity="1"><g transform="translate(214.907874, 272.525869)"><g><path d="M 1.671875 -0.59375 L 2.4375 -0.59375 C 3.0625 -0.59375 3.515625 -0.695312 3.796875 -0.90625 C 4.078125 -1.113281 4.21875 -1.4375 4.21875 -1.875 C 4.21875 -2.375 4.0625 -2.757812 3.75 -3.03125 C 3.4375 -3.3125 2.992188 -3.453125 2.421875 -3.453125 L 1.921875 -3.453125 L 1.921875 -4.0625 L 2.296875 -4.0625 C 2.765625 -4.0625 3.117188 -4.15625 3.359375 -4.34375 C 3.609375 -4.539062 3.734375 -4.820312 3.734375 -5.1875 C 3.734375 -5.550781 3.613281 -5.820312 3.375 -6 C 3.144531 -6.175781 2.789062 -6.265625 2.3125 -6.265625 L 1.671875 -6.265625 Z M 0.515625 0 L 0.515625 -0.203125 C 0.640625 -0.242188 0.722656 -0.300781 0.765625 -0.375 C 0.816406 -0.445312 0.84375 -0.570312 0.84375 -0.75 L 0.84375 -6.109375 C 0.84375 -6.296875 0.816406 -6.425781 0.765625 -6.5 C 0.722656 -6.570312 0.640625 -6.628906 0.515625 -6.671875 L 0.515625 -6.875 L 2.390625 -6.875 C 3.054688 -6.875 3.582031 -6.734375 3.96875 -6.453125 C 4.351562 -6.171875 4.546875 -5.785156 4.546875 -5.296875 C 4.546875 -4.941406 4.441406 -4.632812 4.234375 -4.375 C 4.035156 -4.113281 3.75 -3.925781 3.375 -3.8125 C 3.90625 -3.65625 4.3125 -3.414062 4.59375 -3.09375 C 4.882812 -2.769531 5.03125 -2.382812 5.03125 -1.9375 C 5.03125 -1.34375 4.835938 -0.867188 4.453125 -0.515625 C 4.066406 -0.171875 3.539062 0 2.875 0 Z M 0.515625 0 "/></g></g></g><g fill="#000000" fill-opacity="1"><g transform="translate(220.662798, 272.525869)"><g/></g></g><g fill="#000000" fill-opacity="1"><g transform="translate(223.533297, 272.525869)"><g><path d="M 3.953125 -6.1875 L 2.1875 -6.1875 C 1.789062 -6.1875 1.488281 -6.15625 1.28125 -6.09375 C 1.070312 -6.03125 0.890625 -5.925781 0.734375 -5.78125 L 0.484375 -5.78125 L 1.046875 -6.875 L 4.5 -6.875 L 4.5 -6.328125 C 3.78125 -5.140625 3.234375 -4.078125 2.859375 -3.140625 C 2.492188 -2.210938 2.3125 -1.429688 2.3125 -0.796875 C 2.3125 -0.617188 2.335938 -0.476562 2.390625 -0.375 C 2.453125 -0.269531 2.535156 -0.207031 2.640625 -0.1875 L 2.640625 0 L 1.484375 0 C 1.472656 -0.0703125 1.460938 -0.140625 1.453125 -0.203125 C 1.453125 -0.265625 1.453125 -0.328125 1.453125 -0.390625 C 1.453125 -1.085938 1.65625 -1.90625 2.0625 -2.84375 C 2.476562 -3.789062 3.109375 -4.90625 3.953125 -6.1875 Z M 3.953125 -6.1875 "/></g></g></g><g fill="#000000" fill-opacity="1"><g transform="translate(228.895529, 272.525869)"><g><path d="M 2.484375 -0.46875 C 2.867188 -0.46875 3.1875 -0.742188 3.4375 -1.296875 C 3.695312 -1.847656 3.828125 -2.5625 3.828125 -3.4375 C 3.828125 -4.3125 3.695312 -5.023438 3.4375 -5.578125 C 3.1875 -6.128906 2.867188 -6.40625 2.484375 -6.40625 C 2.097656 -6.40625 1.773438 -6.128906 1.515625 -5.578125 C 1.253906 -5.023438 1.125 -4.3125 1.125 -3.4375 C 1.125 -2.5625 1.253906 -1.847656 1.515625 -1.296875 C 1.773438 -0.742188 2.097656 -0.46875 2.484375 -0.46875 Z M 2.484375 0.109375 C 1.878906 0.109375 1.367188 -0.222656 0.953125 -0.890625 C 0.535156 -1.566406 0.328125 -2.414062 0.328125 -3.4375 C 0.328125 -4.457031 0.535156 -5.300781 0.953125 -5.96875 C 1.367188 -6.644531 1.878906 -6.984375 2.484375 -6.984375 C 3.085938 -6.984375 3.59375 -6.644531 4 -5.96875 C 4.414062 -5.300781 4.625 -4.457031 4.625 -3.4375 C 4.625 -2.414062 4.414062 -1.566406 4 -0.890625 C 3.59375 -0.222656 3.085938 0.109375 2.484375 0.109375 Z M 2.484375 0.109375 "/></g></g></g><g fill="#000000" fill-opacity="1"><g transform="translate(234.25776, 272.525869)"><g><path d="M 2.484375 -0.46875 C 2.867188 -0.46875 3.1875 -0.742188 3.4375 -1.296875 C 3.695312 -1.847656 3.828125 -2.5625 3.828125 -3.4375 C 3.828125 -4.3125 3.695312 -5.023438 3.4375 -5.578125 C 3.1875 -6.128906 2.867188 -6.40625 2.484375 -6.40625 C 2.097656 -6.40625 1.773438 -6.128906 1.515625 -5.578125 C 1.253906 -5.023438 1.125 -4.3125 1.125 -3.4375 C 1.125 -2.5625 1.253906 -1.847656 1.515625 -1.296875 C 1.773438 -0.742188 2.097656 -0.46875 2.484375 -0.46875 Z M 2.484375 0.109375 C 1.878906 0.109375 1.367188 -0.222656 0.953125 -0.890625 C 0.535156 -1.566406 0.328125 -2.414062 0.328125 -3.4375 C 0.328125 -4.457031 0.535156 -5.300781 0.953125 -5.96875 C 1.367188 -6.644531 1.878906 -6.984375 2.484375 -6.984375 C 3.085938 -6.984375 3.59375 -6.644531 4 -5.96875 C 4.414062 -5.300781 4.625 -4.457031 4.625 -3.4375 C 4.625 -2.414062 4.414062 -1.566406 4 -0.890625 C 3.59375 -0.222656 3.085938 0.109375 2.484375 0.109375 Z M 2.484375 0.109375 "/></g></g></g><g fill="#000000" fill-opacity="1"><g transform="translate(239.619992, 272.525869)"><g><path d="M 2.859375 -6.921875 L 2.859375 -0.859375 C 2.859375 -0.609375 2.890625 -0.4375 2.953125 -0.34375 C 3.023438 -0.257812 3.148438 -0.207031 3.328125 -0.1875 L 3.328125 0 L 1.625 0 L 1.625 -0.1875 C 1.84375 -0.207031 1.988281 -0.257812 2.0625 -0.34375 C 2.132812 -0.425781 2.171875 -0.597656 2.171875 -0.859375 L 2.171875 -5.359375 C 2.171875 -5.554688 2.128906 -5.6875 2.046875 -5.75 C 1.972656 -5.820312 1.832031 -5.863281 1.625 -5.875 L 1.625 -6 L 2.71875 -6.921875 Z M 2.859375 -6.921875 "/></g></g></g><g fill="#000000" fill-opacity="1"><g transform="translate(244.982224, 272.525869)"><g><path d="M 0.15625 0 L 0.15625 -0.40625 C 1.625 -1.882812 2.546875 -2.921875 2.921875 -3.515625 C 3.304688 -4.109375 3.5 -4.664062 3.5 -5.1875 C 3.5 -5.570312 3.390625 -5.875 3.171875 -6.09375 C 2.960938 -6.3125 2.675781 -6.421875 2.3125 -6.421875 C 2.007812 -6.421875 1.765625 -6.332031 1.578125 -6.15625 C 1.390625 -5.976562 1.296875 -5.742188 1.296875 -5.453125 C 1.296875 -5.316406 1.328125 -5.195312 1.390625 -5.09375 C 1.453125 -5 1.539062 -4.925781 1.65625 -4.875 L 1.578125 -4.640625 L 0.421875 -5.078125 C 0.472656 -5.648438 0.6875 -6.109375 1.0625 -6.453125 C 1.4375 -6.804688 1.894531 -6.984375 2.4375 -6.984375 C 2.988281 -6.984375 3.4375 -6.804688 3.78125 -6.453125 C 4.132812 -6.109375 4.3125 -5.671875 4.3125 -5.140625 C 4.3125 -4.203125 3.300781 -2.742188 1.28125 -0.765625 L 1.078125 -0.5625 L 2.453125 -0.578125 C 2.472656 -0.578125 2.492188 -0.578125 2.515625 -0.578125 C 3.296875 -0.597656 3.851562 -0.796875 4.1875 -1.171875 L 4.421875 -1.078125 L 3.984375 0 Z M 0.15625 0 "/></g></g></g><g fill="#000000" fill-opacity="1"><g transform="translate(250.344456, 272.525869)"><g><path d="M 1.71875 -3.625 L 1.8125 -3.984375 C 1.925781 -4.035156 2.046875 -4.070312 2.171875 -4.09375 C 2.296875 -4.113281 2.441406 -4.125 2.609375 -4.125 C 3.171875 -4.125 3.632812 -3.929688 4 -3.546875 C 4.363281 -3.160156 4.546875 -2.664062 4.546875 -2.0625 C 4.546875 -1.40625 4.363281 -0.878906 4 -0.484375 C 3.632812 -0.0859375 3.148438 0.109375 2.546875 0.109375 C 1.898438 0.109375 1.367188 -0.125 0.953125 -0.59375 C 0.546875 -1.0625 0.34375 -1.664062 0.34375 -2.40625 C 0.34375 -3.425781 0.753906 -4.359375 1.578125 -5.203125 C 2.398438 -6.054688 3.484375 -6.648438 4.828125 -6.984375 L 4.921875 -6.6875 C 3.773438 -6.289062 2.859375 -5.707031 2.171875 -4.9375 C 1.492188 -4.164062 1.15625 -3.34375 1.15625 -2.46875 C 1.15625 -1.875 1.289062 -1.378906 1.5625 -0.984375 C 1.832031 -0.597656 2.171875 -0.40625 2.578125 -0.40625 C 2.929688 -0.40625 3.21875 -0.539062 3.4375 -0.8125 C 3.65625 -1.09375 3.765625 -1.457031 3.765625 -1.90625 C 3.765625 -2.457031 3.628906 -2.894531 3.359375 -3.21875 C 3.097656 -3.550781 2.742188 -3.71875 2.296875 -3.71875 C 2.191406 -3.71875 2.09375 -3.707031 2 -3.6875 C 1.90625 -3.675781 1.8125 -3.65625 1.71875 -3.625 Z M 1.71875 -3.625 "/></g></g></g><g fill="#000000" fill-opacity="1"><g transform="translate(195.316367, 239.383518)"><g><path d="M 2.296875 -6.8125 L 2.296875 -6.578125 C 2.160156 -6.523438 2.066406 -6.460938 2.015625 -6.390625 C 1.972656 -6.316406 1.953125 -6.191406 1.953125 -6.015625 L 1.953125 -4.28125 L 6.359375 -4.28125 L 6.359375 -6.015625 C 6.359375 -6.191406 6.332031 -6.316406 6.28125 -6.390625 C 6.238281 -6.472656 6.148438 -6.535156 6.015625 -6.578125 L 6.015625 -6.8125 L 7.828125 -6.8125 L 7.828125 -6.578125 C 7.703125 -6.523438 7.613281 -6.460938 7.5625 -6.390625 C 7.519531 -6.316406 7.5 -6.191406 7.5 -6.015625 L 7.5 -0.796875 C 7.5 -0.617188 7.519531 -0.488281 7.5625 -0.40625 C 7.613281 -0.332031 7.703125 -0.273438 7.828125 -0.234375 L 7.828125 0 L 6.015625 0 L 6.015625 -0.234375 C 6.140625 -0.273438 6.226562 -0.332031 6.28125 -0.40625 C 6.332031 -0.488281 6.359375 -0.617188 6.359375 -0.796875 L 6.359375 -3.453125 L 1.953125 -3.453125 L 1.953125 -0.796875 C 1.953125 -0.617188 1.976562 -0.488281 2.03125 -0.40625 C 2.082031 -0.332031 2.171875 -0.273438 2.296875 -0.234375 L 2.296875 0 L 0.484375 0 L 0.484375 -0.234375 C 0.609375 -0.273438 0.691406 -0.332031 0.734375 -0.40625 C 0.785156 -0.488281 0.8125 -0.617188 0.8125 -0.796875 L 0.8125 -6.015625 C 0.8125 -6.191406 0.785156 -6.316406 0.734375 -6.390625 C 0.691406 -6.472656 0.609375 -6.535156 0.484375 -6.578125 L 0.484375 -6.8125 Z M 2.296875 -6.8125 "/></g></g></g><g fill="#000000" fill-opacity="1"><g transform="translate(203.622031, 239.383518)"><g><path d="M 2.015625 -2.765625 L 4.21875 -2.765625 L 3.140625 -5.3125 Z M 1.65625 -1.9375 L 1.25 -0.96875 C 1.207031 -0.882812 1.175781 -0.804688 1.15625 -0.734375 C 1.144531 -0.671875 1.140625 -0.609375 1.140625 -0.546875 C 1.140625 -0.484375 1.15625 -0.421875 1.1875 -0.359375 C 1.226562 -0.304688 1.289062 -0.265625 1.375 -0.234375 L 1.375 0 L -0.1875 0 L -0.1875 -0.234375 C -0.101562 -0.285156 -0.0234375 -0.367188 0.046875 -0.484375 C 0.117188 -0.597656 0.226562 -0.8125 0.375 -1.125 L 2.953125 -6.8125 L 3.578125 -6.8125 L 6.09375 -1.125 L 6.125 -1.046875 C 6.332031 -0.578125 6.507812 -0.304688 6.65625 -0.234375 L 6.65625 0 L 4.84375 0 L 4.84375 -0.234375 C 4.925781 -0.265625 4.984375 -0.304688 5.015625 -0.359375 C 5.054688 -0.421875 5.078125 -0.484375 5.078125 -0.546875 C 5.078125 -0.597656 5.066406 -0.660156 5.046875 -0.734375 C 5.035156 -0.804688 5.015625 -0.882812 4.984375 -0.96875 L 4.578125 -1.9375 Z M 1.65625 -1.9375 "/></g></g></g><g fill="#000000" fill-opacity="1"><g transform="translate(210.087656, 239.383518)"><g><path d="M 0.8125 -5.984375 C 0.8125 -6.179688 0.785156 -6.316406 0.734375 -6.390625 C 0.691406 -6.472656 0.609375 -6.535156 0.484375 -6.578125 L 0.484375 -6.8125 L 2.296875 -6.8125 L 2.296875 -6.578125 C 2.160156 -6.535156 2.066406 -6.476562 2.015625 -6.40625 C 1.972656 -6.332031 1.953125 -6.191406 1.953125 -5.984375 L 1.953125 -0.828125 L 4.390625 -0.828125 C 4.671875 -0.828125 4.882812 -0.851562 5.03125 -0.90625 C 5.175781 -0.96875 5.300781 -1.066406 5.40625 -1.203125 L 5.65625 -1.09375 L 5.203125 0 L 0.484375 0 L 0.484375 -0.234375 C 0.609375 -0.273438 0.691406 -0.332031 0.734375 -0.40625 C 0.785156 -0.488281 0.8125 -0.632812 0.8125 -0.84375 Z M 0.8125 -5.984375 "/></g></g></g><g fill="#000000" fill-opacity="1"><g transform="translate(215.714372, 239.383518)"><g><path d="M 0.484375 0 L 0.484375 -0.234375 C 0.609375 -0.273438 0.691406 -0.332031 0.734375 -0.40625 C 0.785156 -0.488281 0.8125 -0.617188 0.8125 -0.796875 L 0.8125 -6.015625 C 0.8125 -6.191406 0.785156 -6.316406 0.734375 -6.390625 C 0.691406 -6.472656 0.609375 -6.535156 0.484375 -6.578125 L 0.484375 -6.8125 L 2.625 -6.8125 C 3.0625 -6.8125 3.453125 -6.769531 3.796875 -6.6875 C 4.140625 -6.601562 4.441406 -6.472656 4.703125 -6.296875 C 5.171875 -5.984375 5.539062 -5.570312 5.8125 -5.0625 C 6.082031 -4.550781 6.21875 -4 6.21875 -3.40625 C 6.21875 -2.375 5.90625 -1.546875 5.28125 -0.921875 C 4.664062 -0.304688 3.835938 0 2.796875 0 Z M 1.953125 -0.828125 L 2.578125 -0.828125 C 2.960938 -0.828125 3.257812 -0.847656 3.46875 -0.890625 C 3.6875 -0.941406 3.882812 -1.019531 4.0625 -1.125 C 4.394531 -1.320312 4.644531 -1.613281 4.8125 -2 C 4.988281 -2.394531 5.078125 -2.863281 5.078125 -3.40625 C 5.078125 -4.28125 4.863281 -4.929688 4.4375 -5.359375 C 4.019531 -5.785156 3.378906 -6 2.515625 -6 L 1.953125 -6 Z M 1.953125 -0.828125 "/></g></g></g><g fill="#000000" fill-opacity="1"><g transform="translate(222.263425, 239.383518)"><g><path d="M 2 -0.796875 C 2 -0.617188 2.019531 -0.488281 2.0625 -0.40625 C 2.113281 -0.332031 2.203125 -0.273438 2.328125 -0.234375 L 2.328125 0 L 0.53125 0 L 0.53125 -0.234375 C 0.65625 -0.273438 0.738281 -0.332031 0.78125 -0.40625 C 0.832031 -0.488281 0.859375 -0.617188 0.859375 -0.796875 L 0.859375 -6.015625 C 0.859375 -6.203125 0.832031 -6.332031 0.78125 -6.40625 C 0.738281 -6.476562 0.65625 -6.535156 0.53125 -6.578125 L 0.53125 -6.8125 L 2.328125 -6.8125 L 2.328125 -6.578125 C 2.203125 -6.535156 2.113281 -6.476562 2.0625 -6.40625 C 2.019531 -6.332031 2 -6.203125 2 -6.015625 Z M 2 -0.796875 "/></g></g></g><g transform="matrix(1, 0, 0, 1, 101, 267)"><g clip-path="url(#164a01c3e3)"><g fill="#000000" fill-opacity="1"><g transform="translate(0.671869, 8.279124)"><g><path d="M 2.6875 -5.9375 L 2.6875 -0.796875 C 2.6875 -0.578125 2.710938 -0.425781 2.765625 -0.34375 C 2.828125 -0.269531 2.9375 -0.222656 3.09375 -0.203125 L 3.09375 0 L 1.359375 0 L 1.359375 -0.203125 C 1.535156 -0.222656 1.65625 -0.269531 1.71875 -0.34375 C 1.789062 -0.425781 1.828125 -0.578125 1.828125 -0.796875 L 1.828125 -4.484375 C 1.828125 -4.660156 1.789062 -4.773438 1.71875 -4.828125 C 1.65625 -4.890625 1.535156 -4.925781 1.359375 -4.9375 L 1.359375 -5.125 L 2.53125 -5.9375 Z M 2.6875 -5.9375 "/></g></g></g><g fill="#000000" fill-opacity="1"><g transform="translate(5.149845, 8.279124)"><g><path d="M 2.234375 -5.28125 C 1.941406 -5.28125 1.707031 -5.078125 1.53125 -4.671875 C 1.351562 -4.265625 1.265625 -3.71875 1.265625 -3.03125 C 1.265625 -2.25 1.347656 -1.648438 1.515625 -1.234375 C 1.691406 -0.816406 1.929688 -0.609375 2.234375 -0.609375 C 2.546875 -0.609375 2.785156 -0.8125 2.953125 -1.21875 C 3.117188 -1.625 3.203125 -2.195312 3.203125 -2.9375 C 3.203125 -3.6875 3.117188 -4.265625 2.953125 -4.671875 C 2.785156 -5.078125 2.546875 -5.28125 2.234375 -5.28125 Z M 2.234375 0.09375 C 1.660156 0.09375 1.1875 -0.1875 0.8125 -0.75 C 0.4375 -1.320312 0.25 -2.050781 0.25 -2.9375 C 0.25 -3.832031 0.4375 -4.5625 0.8125 -5.125 C 1.195312 -5.695312 1.671875 -5.984375 2.234375 -5.984375 C 2.804688 -5.984375 3.28125 -5.695312 3.65625 -5.125 C 4.039062 -4.5625 4.234375 -3.832031 4.234375 -2.9375 C 4.234375 -2.050781 4.039062 -1.320312 3.65625 -0.75 C 3.28125 -0.1875 2.804688 0.09375 2.234375 0.09375 Z M 2.234375 0.09375 "/></g></g></g><g fill="#000000" fill-opacity="1"><g transform="translate(9.627821, 8.279124)"><g><path d="M 1.75 -2.390625 L 3.640625 -2.390625 L 2.71875 -4.59375 Z M 1.421875 -1.671875 L 1.078125 -0.828125 C 1.046875 -0.765625 1.019531 -0.703125 1 -0.640625 C 0.988281 -0.578125 0.984375 -0.523438 0.984375 -0.484375 C 0.984375 -0.421875 1 -0.363281 1.03125 -0.3125 C 1.0625 -0.269531 1.113281 -0.234375 1.1875 -0.203125 L 1.1875 0 L -0.15625 0 L -0.15625 -0.203125 C -0.09375 -0.242188 -0.03125 -0.3125 0.03125 -0.40625 C 0.09375 -0.507812 0.191406 -0.703125 0.328125 -0.984375 L 2.546875 -5.890625 L 3.09375 -5.890625 L 5.265625 -0.96875 L 5.28125 -0.90625 C 5.46875 -0.5 5.625 -0.265625 5.75 -0.203125 L 5.75 0 L 4.1875 0 L 4.1875 -0.203125 C 4.25 -0.234375 4.296875 -0.269531 4.328125 -0.3125 C 4.367188 -0.363281 4.390625 -0.421875 4.390625 -0.484375 C 4.390625 -0.523438 4.378906 -0.578125 4.359375 -0.640625 C 4.347656 -0.703125 4.328125 -0.769531 4.296875 -0.84375 L 3.953125 -1.671875 Z M 1.421875 -1.671875 "/></g></g></g><g fill="#000000" fill-opacity="1"><g transform="translate(15.215277, 8.279124)"><g><path d="M 1.71875 -4.765625 L 1.40625 -0.828125 C 1.394531 -0.816406 1.390625 -0.796875 1.390625 -0.765625 C 1.390625 -0.742188 1.390625 -0.71875 1.390625 -0.6875 C 1.390625 -0.53125 1.410156 -0.414062 1.453125 -0.34375 C 1.492188 -0.28125 1.570312 -0.234375 1.6875 -0.203125 L 1.6875 0 L 0.234375 0 L 0.234375 -0.203125 C 0.421875 -0.273438 0.539062 -0.550781 0.59375 -1.03125 C 0.59375 -1.050781 0.59375 -1.066406 0.59375 -1.078125 L 1.0625 -5.515625 L 1.046875 -5.515625 C 0.898438 -5.523438 0.785156 -5.53125 0.703125 -5.53125 C 0.679688 -5.53125 0.640625 -5.523438 0.578125 -5.515625 C 0.523438 -5.515625 0.453125 -5.507812 0.359375 -5.5 L 0.296875 -5.78125 C 0.503906 -5.832031 0.722656 -5.867188 0.953125 -5.890625 C 1.191406 -5.921875 1.441406 -5.9375 1.703125 -5.9375 C 1.742188 -5.9375 1.789062 -5.929688 1.84375 -5.921875 C 1.90625 -5.921875 1.96875 -5.921875 2.03125 -5.921875 L 3.796875 -2.859375 L 5.484375 -5.921875 C 5.554688 -5.921875 5.617188 -5.921875 5.671875 -5.921875 C 5.734375 -5.929688 5.800781 -5.9375 5.875 -5.9375 C 6.125 -5.9375 6.363281 -5.921875 6.59375 -5.890625 C 6.820312 -5.867188 7.046875 -5.832031 7.265625 -5.78125 L 7.203125 -5.5 C 7.109375 -5.507812 7.03125 -5.515625 6.96875 -5.515625 C 6.914062 -5.523438 6.878906 -5.53125 6.859375 -5.53125 C 6.816406 -5.53125 6.769531 -5.53125 6.71875 -5.53125 C 6.675781 -5.53125 6.601562 -5.523438 6.5 -5.515625 L 7.046875 -1.015625 C 7.085938 -0.703125 7.128906 -0.492188 7.171875 -0.390625 C 7.222656 -0.296875 7.300781 -0.234375 7.40625 -0.203125 L 7.40625 0 L 5.859375 0 L 5.859375 -0.203125 C 5.960938 -0.253906 6.03125 -0.3125 6.0625 -0.375 C 6.101562 -0.4375 6.125 -0.523438 6.125 -0.640625 C 6.125 -0.648438 6.117188 -0.6875 6.109375 -0.75 C 6.109375 -0.8125 6.101562 -0.867188 6.09375 -0.921875 L 5.640625 -4.765625 L 3.84375 -1.5625 L 3.5625 -1.5625 Z M 1.71875 -4.765625 "/></g></g></g><g fill="#000000" fill-opacity="1"><g transform="translate(22.829439, 8.279124)"><g><path d="M 2.25 -1.90625 L 0.28125 -0.9375 L 0.28125 -1.609375 L 2.25 -2.5625 Z M 2.25 -1.90625 "/></g></g></g><g fill="#000000" fill-opacity="1"><g transform="translate(25.372833, 8.279124)"><g><path d="M 2.6875 -5.9375 L 2.6875 -0.796875 C 2.6875 -0.578125 2.710938 -0.425781 2.765625 -0.34375 C 2.828125 -0.269531 2.9375 -0.222656 3.09375 -0.203125 L 3.09375 0 L 1.359375 0 L 1.359375 -0.203125 C 1.535156 -0.222656 1.65625 -0.269531 1.71875 -0.34375 C 1.789062 -0.425781 1.828125 -0.578125 1.828125 -0.796875 L 1.828125 -4.484375 C 1.828125 -4.660156 1.789062 -4.773438 1.71875 -4.828125 C 1.65625 -4.890625 1.535156 -4.925781 1.359375 -4.9375 L 1.359375 -5.125 L 2.53125 -5.9375 Z M 2.6875 -5.9375 "/></g></g></g><g fill="#000000" fill-opacity="1"><g transform="translate(29.850809, 8.279124)"><g><path d="M 0.0625 0 L 0.0625 -0.359375 C 1.332031 -1.597656 2.132812 -2.46875 2.46875 -2.96875 C 2.800781 -3.476562 2.96875 -3.945312 2.96875 -4.375 C 2.96875 -4.6875 2.890625 -4.929688 2.734375 -5.109375 C 2.585938 -5.285156 2.378906 -5.375 2.109375 -5.375 C 1.898438 -5.375 1.722656 -5.304688 1.578125 -5.171875 C 1.441406 -5.035156 1.375 -4.863281 1.375 -4.65625 C 1.375 -4.539062 1.40625 -4.429688 1.46875 -4.328125 C 1.53125 -4.234375 1.625 -4.148438 1.75 -4.078125 L 1.625 -3.828125 L 0.265625 -4.359375 C 0.390625 -4.878906 0.617188 -5.28125 0.953125 -5.5625 C 1.296875 -5.84375 1.726562 -5.984375 2.25 -5.984375 C 2.769531 -5.984375 3.1875 -5.832031 3.5 -5.53125 C 3.820312 -5.238281 3.984375 -4.851562 3.984375 -4.375 C 3.984375 -3.875 3.773438 -3.335938 3.359375 -2.765625 C 2.941406 -2.203125 2.238281 -1.503906 1.25 -0.671875 L 2.078125 -0.671875 C 2.585938 -0.671875 2.96875 -0.710938 3.21875 -0.796875 C 3.476562 -0.878906 3.671875 -1.019531 3.796875 -1.21875 L 4.09375 -1.09375 L 3.65625 0 Z M 0.0625 0 "/></g></g></g><g fill="#000000" fill-opacity="1"><g transform="translate(34.328785, 8.279124)"><g><path d="M 0.703125 -5.203125 C 0.703125 -5.347656 0.679688 -5.453125 0.640625 -5.515625 C 0.597656 -5.585938 0.523438 -5.640625 0.421875 -5.671875 L 0.421875 -5.890625 L 2.09375 -5.890625 C 2.519531 -5.890625 2.847656 -5.863281 3.078125 -5.8125 C 3.316406 -5.769531 3.519531 -5.703125 3.6875 -5.609375 C 3.925781 -5.460938 4.109375 -5.273438 4.234375 -5.046875 C 4.359375 -4.816406 4.421875 -4.566406 4.421875 -4.296875 C 4.421875 -3.773438 4.238281 -3.359375 3.875 -3.046875 C 3.507812 -2.742188 3.007812 -2.59375 2.375 -2.59375 C 2.300781 -2.59375 2.234375 -2.59375 2.171875 -2.59375 C 2.117188 -2.601562 2.0625 -2.609375 2 -2.609375 L 2 -3.296875 L 2.15625 -3.296875 C 2.601562 -3.296875 2.929688 -3.367188 3.140625 -3.515625 C 3.359375 -3.671875 3.46875 -3.898438 3.46875 -4.203125 C 3.46875 -4.546875 3.359375 -4.789062 3.140625 -4.9375 C 2.929688 -5.09375 2.550781 -5.171875 2 -5.171875 L 1.6875 -5.171875 L 1.6875 -0.6875 C 1.6875 -0.53125 1.707031 -0.421875 1.75 -0.359375 C 1.789062 -0.296875 1.867188 -0.242188 1.984375 -0.203125 L 1.984375 0 L 0.421875 0 L 0.421875 -0.203125 C 0.523438 -0.242188 0.597656 -0.296875 0.640625 -0.359375 C 0.679688 -0.421875 0.703125 -0.53125 0.703125 -0.6875 Z M 0.703125 -5.203125 "/></g></g></g><g fill="#000000" fill-opacity="1"><g transform="translate(38.890873, 8.279124)"><g><path d="M 1.71875 -4.765625 L 1.40625 -0.828125 C 1.394531 -0.816406 1.390625 -0.796875 1.390625 -0.765625 C 1.390625 -0.742188 1.390625 -0.71875 1.390625 -0.6875 C 1.390625 -0.53125 1.410156 -0.414062 1.453125 -0.34375 C 1.492188 -0.28125 1.570312 -0.234375 1.6875 -0.203125 L 1.6875 0 L 0.234375 0 L 0.234375 -0.203125 C 0.421875 -0.273438 0.539062 -0.550781 0.59375 -1.03125 C 0.59375 -1.050781 0.59375 -1.066406 0.59375 -1.078125 L 1.0625 -5.515625 L 1.046875 -5.515625 C 0.898438 -5.523438 0.785156 -5.53125 0.703125 -5.53125 C 0.679688 -5.53125 0.640625 -5.523438 0.578125 -5.515625 C 0.523438 -5.515625 0.453125 -5.507812 0.359375 -5.5 L 0.296875 -5.78125 C 0.503906 -5.832031 0.722656 -5.867188 0.953125 -5.890625 C 1.191406 -5.921875 1.441406 -5.9375 1.703125 -5.9375 C 1.742188 -5.9375 1.789062 -5.929688 1.84375 -5.921875 C 1.90625 -5.921875 1.96875 -5.921875 2.03125 -5.921875 L 3.796875 -2.859375 L 5.484375 -5.921875 C 5.554688 -5.921875 5.617188 -5.921875 5.671875 -5.921875 C 5.734375 -5.929688 5.800781 -5.9375 5.875 -5.9375 C 6.125 -5.9375 6.363281 -5.921875 6.59375 -5.890625 C 6.820312 -5.867188 7.046875 -5.832031 7.265625 -5.78125 L 7.203125 -5.5 C 7.109375 -5.507812 7.03125 -5.515625 6.96875 -5.515625 C 6.914062 -5.523438 6.878906 -5.53125 6.859375 -5.53125 C 6.816406 -5.53125 6.769531 -5.53125 6.71875 -5.53125 C 6.675781 -5.53125 6.601562 -5.523438 6.5 -5.515625 L 7.046875 -1.015625 C 7.085938 -0.703125 7.128906 -0.492188 7.171875 -0.390625 C 7.222656 -0.296875 7.300781 -0.234375 7.40625 -0.203125 L 7.40625 0 L 5.859375 0 L 5.859375 -0.203125 C 5.960938 -0.253906 6.03125 -0.3125 6.0625 -0.375 C 6.101562 -0.4375 6.125 -0.523438 6.125 -0.640625 C 6.125 -0.648438 6.117188 -0.6875 6.109375 -0.75 C 6.109375 -0.8125 6.101562 -0.867188 6.09375 -0.921875 L 5.640625 -4.765625 L 3.84375 -1.5625 L 3.5625 -1.5625 Z M 1.71875 -4.765625 "/></g></g></g></g></g></svg>